<svg width="42" height="51" viewBox="0 0 42 51" fill="none" xmlns="http://www.w3.org/2000/svg">
<path d="M27.3594 24.6195V14.591L35.8579 13.7041C36.0269 13.681 36.1987 13.7168 36.344 13.8053L40.7971 16.3649C40.9049 16.4225 40.9976 16.5044 41.0677 16.604C41.1379 16.7036 41.1835 16.8181 41.2011 16.9383C41.2186 17.0586 41.2075 17.1812 41.1687 17.2965C41.1298 17.4117 41.0643 17.5163 40.9774 17.6019L31.789 27.1869L27.3594 24.6195Z" fill="#B0C4CD"/>
<path d="M0.703125 47.2434V16.2401C0.715359 15.9937 0.786427 15.7538 0.910472 15.5401C1.03452 15.3264 1.20799 15.1449 1.41657 15.0108L26.9122 0.431111C27.1321 0.320396 27.3752 0.262695 27.6218 0.262695C27.8683 0.262695 28.1114 0.320396 28.3313 0.431111L32.2983 2.76511C32.5054 2.9001 32.6774 3.08188 32.8 3.29555C32.9227 3.50923 32.9926 3.74871 33.0039 3.99435V35.021C32.9917 35.2673 32.9206 35.5073 32.7966 35.721C32.6725 35.9347 32.4991 36.1161 32.2905 36.2502L6.7948 50.8222C6.57493 50.9329 6.33184 50.9906 6.08528 50.9906C5.83872 50.9906 5.59564 50.9329 5.37576 50.8222L1.40873 48.4882C1.1995 48.3517 1.02626 48.1674 0.903503 47.9509C0.780745 47.7343 0.712034 47.4917 0.703125 47.2434Z" fill="#B0C4CD"/>
<path opacity="0.15" d="M6.70064 50.8535C6.36352 50.9857 6.10481 50.799 6.10481 50.3944V19.3522C6.11311 19.1046 6.18604 18.8633 6.31648 18.652L0.922562 15.54C0.800194 15.7454 0.732727 15.9784 0.726562 16.2169V47.2435C0.737926 47.4892 0.807801 47.7287 0.930452 47.9423C1.0531 48.156 1.22504 48.3378 1.43216 48.4728L5.3992 50.8068C5.60009 50.9066 5.82028 50.9625 6.04482 50.9705C6.26935 50.9786 6.49301 50.9387 6.70064 50.8535Z" fill="black"/>
<path d="M40.3311 16.2398L33.0007 17.0178V3.97077C33.0007 3.51953 32.6792 3.34058 32.2872 3.5662L6.79156 18.1459C6.58401 18.2793 6.41119 18.4595 6.2872 18.6717C6.16321 18.884 6.09157 19.1224 6.07812 19.3674V50.394C6.07812 50.8453 6.39956 51.0242 6.79156 50.7986L32.2872 36.2266C32.4958 36.0925 32.6693 35.9111 32.7933 35.6974C32.9174 35.4837 32.9884 35.2437 33.0007 34.9974V25.9493L40.9896 17.6013C41.1246 17.4906 41.2183 17.3383 41.2559 17.1686C41.2935 16.9989 41.2727 16.8216 41.197 16.665C41.1212 16.5083 40.9948 16.3814 40.8379 16.3043C40.6809 16.2273 40.5025 16.2046 40.3311 16.2398Z" fill="#B0C4CD"/>
<path opacity="0.35" d="M40.3311 16.2398L33.0007 17.0178V3.97077C33.0007 3.51953 32.6792 3.34058 32.2872 3.5662L6.79156 18.1459C6.58401 18.2793 6.41119 18.4595 6.2872 18.6717C6.16321 18.884 6.09157 19.1224 6.07812 19.3674V50.394C6.07812 50.8453 6.39956 51.0242 6.79156 50.7986L32.2872 36.2266C32.4958 36.0925 32.6693 35.9111 32.7933 35.6974C32.9174 35.4837 32.9884 35.2437 33.0007 34.9974V25.9493L40.9896 17.6013C41.1246 17.4906 41.2183 17.3383 41.2559 17.1686C41.2935 16.9989 41.2727 16.8216 41.197 16.665C41.1212 16.5083 40.9948 16.3814 40.8379 16.3043C40.6809 16.2273 40.5025 16.2046 40.3311 16.2398Z" fill="white"/>
<path d="M26.9672 30.2904C26.9974 30.2355 27.0132 30.174 27.0132 30.1114C27.0132 30.0489 26.9974 29.9874 26.9672 29.9325L25.8774 28.7266C25.746 28.52 25.6654 28.2855 25.6422 28.0422C25.6191 27.7989 25.654 27.5536 25.7441 27.3262C25.8759 26.7709 26.187 26.2737 26.6301 25.9102L28.3784 24.6499C28.4889 24.5567 28.5614 24.4267 28.5822 24.2842C28.6763 23.5462 28.7235 22.803 28.7233 22.0591C28.7234 21.362 28.6789 20.6656 28.5901 19.9741C28.5901 19.8574 28.4882 19.8029 28.3862 19.8418L26.6458 20.5732C26.5625 20.6144 26.471 20.6367 26.378 20.6384C26.285 20.6402 26.1927 20.6214 26.1079 20.5835C26.0231 20.5455 25.9478 20.4892 25.8876 20.4188C25.8274 20.3484 25.7838 20.2656 25.7598 20.1764C25.7598 20.1764 25.7598 20.1764 25.7598 20.1375C25.6043 19.62 25.6549 19.0631 25.901 18.5815L26.9907 16.1386C27.0196 16.0819 27.0347 16.0193 27.0347 15.9557C27.0347 15.8922 27.0196 15.8296 26.9907 15.7729C26.4322 14.9741 25.646 14.3591 24.7328 14.0068C24.6466 14.0068 24.5368 14.0068 24.4584 14.1624L23.0786 16.3953C22.9685 16.6093 22.81 16.7952 22.6155 16.9382C22.421 17.0813 22.1958 17.1777 21.9574 17.22C21.5733 17.22 21.3067 16.9166 21.2675 16.442L21.0715 14.2402C21.0715 14.108 20.9853 14.0535 20.8833 14.0846C19.6993 14.511 18.5986 15.1375 17.6298 15.9363C17.5234 16.0339 17.4565 16.1667 17.4416 16.3097L17.2378 18.7371C17.1768 19.3144 16.9356 19.8584 16.5478 20.2931C16.1637 20.7132 15.7638 20.8921 15.4267 20.7443L13.992 20.1297C13.9058 20.1297 13.796 20.1297 13.7098 20.2775C12.7961 21.6412 12.0239 23.0931 11.4048 24.611C11.3752 24.6675 11.3598 24.7302 11.3598 24.7938C11.3598 24.8575 11.3752 24.9202 11.4048 24.9766L12.4946 26.1748C12.6248 26.382 12.704 26.6168 12.7257 26.8601C12.7475 27.1034 12.7113 27.3483 12.62 27.5752C12.6237 27.5905 12.6237 27.6065 12.62 27.6218C12.4867 28.1702 12.1788 28.6613 11.7419 29.0222L9.98575 30.2904C9.87444 30.3819 9.80401 30.5133 9.78975 30.656C9.69306 31.3965 9.64331 32.1423 9.64079 32.8889C9.63744 33.5786 9.6846 34.2677 9.78191 34.9506C9.78191 35.0751 9.87599 35.1295 9.97791 35.0829L11.7262 34.3593C11.8106 34.3183 11.9031 34.2965 11.997 34.2957C12.0909 34.2949 12.1838 34.315 12.2689 34.3546C12.3539 34.3941 12.4289 34.4522 12.4883 34.5244C12.5477 34.5966 12.5901 34.6811 12.6121 34.7717C12.7644 35.2894 12.714 35.8452 12.471 36.3277L11.4048 38.8017C11.3758 38.8597 11.3607 38.9236 11.3607 38.9884C11.3607 39.0532 11.3758 39.1171 11.4048 39.1751C11.9801 39.965 12.78 40.5664 13.7019 40.9023C13.7881 40.9023 13.8979 40.9023 13.9763 40.7389L15.3483 38.5061C15.4646 38.2998 15.6267 38.1226 15.8223 37.9878C16.0179 37.853 16.2419 37.7641 16.4773 37.7281C16.8614 37.7281 17.1202 38.0159 17.1672 38.5061L17.3632 40.7078C17.3632 40.8323 17.4494 40.9023 17.5513 40.8634C18.1167 40.6575 18.6603 40.3969 19.1742 40.0854C19.7458 39.7567 20.291 39.3848 20.805 38.9729C20.9097 38.874 20.9762 38.7419 20.9931 38.5994L21.197 36.1721C21.2602 35.5968 21.498 35.0542 21.879 34.6161C22.271 34.1882 22.663 34.0092 23.008 34.157L24.3721 34.8261C24.4505 34.8261 24.5682 34.8261 24.6466 34.6783C25.5655 33.296 26.3429 31.8261 26.9672 30.2904ZM19.1821 33.8303C16.5243 35.3396 14.3683 33.7136 14.3761 30.197C14.384 26.6805 16.54 22.5726 19.1978 21.0633C21.8555 19.554 24.0115 21.1878 24.0037 24.7043C23.9958 28.2209 21.832 32.3132 19.1821 33.8303Z" fill="white"/>
</svg>
