<svg width="36" height="72" viewBox="0 0 36 72" fill="none" xmlns="http://www.w3.org/2000/svg">
<path d="M34.328 66.6731L27.0211 70.8587C27.0391 63.7243 26.2502 56.6103 24.6691 49.6505C19.824 27.3063 9.99267 23.4241 5.20243 14.726C0.169145 5.57675 6.63715 0.0918694 12.7367 1.03325C18.2247 1.86571 26.8487 8.5176 31.1371 22.2493C36.8682 40.3534 35.4648 58.4185 34.328 66.6731Z" fill="#B0C4CD"/>
<path opacity="0.5" d="M34.328 66.6731L27.0211 70.8587C27.0391 63.7243 26.2502 56.6103 24.6691 49.6505C19.824 27.3063 9.99267 23.4241 5.20243 14.726C0.169145 5.57675 6.63715 0.0918694 12.7367 1.03325C18.2247 1.86571 26.8487 8.5176 31.1371 22.2493C36.8682 40.3534 35.4648 58.4185 34.328 66.6731Z" fill="white"/>
<path d="M30.0341 64.9068C29.9841 64.8992 29.9361 64.8819 29.8929 64.8559C29.8497 64.8298 29.8121 64.7956 29.7822 64.7551C29.7524 64.7147 29.7308 64.6688 29.7189 64.62C29.707 64.5713 29.7048 64.5207 29.7126 64.4711C33.5856 37.5756 21.4963 14.399 11.6806 6.54122C11.6415 6.50957 11.609 6.47057 11.585 6.42645C11.5611 6.38233 11.5461 6.33397 11.541 6.28411C11.5359 6.23425 11.5408 6.18388 11.5553 6.13589C11.5699 6.08789 11.5938 6.04321 11.6258 6.0044C11.6557 5.96431 11.6936 5.93072 11.7371 5.9057C11.7806 5.88069 11.8288 5.86478 11.8788 5.85895C11.9287 5.85312 11.9793 5.85749 12.0275 5.8718C12.0757 5.88611 12.1204 5.91007 12.1589 5.94217C22.1235 13.9244 34.3853 37.3889 30.4731 64.58C30.4576 64.6807 30.4029 64.7713 30.3208 64.8324C30.2387 64.8935 30.1358 64.9202 30.0341 64.9068Z" fill="white"/>
<path d="M30.6692 68.758L27.0236 70.843L26.4278 71.1853C25.2282 65.7782 22.0217 60.1377 15.9457 54.0693C8.81912 46.9818 -1.11416 40.361 0.641996 34.4093C2.39816 28.4576 10.4106 30.0292 15.9457 33.5535C21.1436 36.9067 32.2137 49.1291 30.6692 68.758Z" fill="#B0C4CD"/>
<path opacity="0.65" d="M30.6692 68.758L27.0236 70.843L26.4278 71.1853C25.2282 65.7782 22.0217 60.1377 15.9457 54.0693C8.81912 46.9818 -1.11416 40.361 0.641996 34.4093C2.39816 28.4576 10.4106 30.0292 15.9457 33.5535C21.1436 36.9067 32.2137 49.1291 30.6692 68.758Z" fill="white"/>
<path d="M28.7347 67.1011C28.6458 67.087 28.5646 67.0429 28.5047 66.9763C28.4447 66.9097 28.4096 66.8247 28.4054 66.7355C27.8958 53.5562 13.3212 36.4946 6.375 33.6938C6.32269 33.6794 6.27406 33.6541 6.23231 33.6197C6.19056 33.5852 6.15664 33.5424 6.13279 33.494C6.10895 33.4456 6.09571 33.3927 6.09395 33.3389C6.09219 33.285 6.10196 33.2314 6.1226 33.1816C6.14325 33.1318 6.1743 33.0868 6.21371 33.0498C6.25313 33.0127 6.30001 32.9844 6.35127 32.9666C6.40253 32.9489 6.457 32.9421 6.51109 32.9467C6.56518 32.9514 6.61766 32.9674 6.66507 32.9936C13.9406 35.9267 28.6171 53.0116 29.1659 66.7044C29.1691 66.7547 29.1619 66.8051 29.145 66.8527C29.128 66.9002 29.1015 66.9438 29.067 66.9808C29.0326 67.0179 28.991 67.0477 28.9446 67.0684C28.8983 67.0891 28.8482 67.1002 28.7974 67.1011H28.7347Z" fill="white"/>
</svg>
