<svg width="107" height="192" viewBox="0 0 107 192" fill="none" xmlns="http://www.w3.org/2000/svg">
<path opacity="0.2" d="M64.7982 179.006C68.9831 175.593 73.6306 172.78 78.6044 170.651C84.9626 167.788 92.5988 165.259 97.9065 162.147C104.798 158.102 107.432 153.231 106.93 148.33C106.64 145.552 104.978 142.471 98.6121 140.425C96.7519 139.82 94.8199 139.459 92.8654 139.352C90.1258 139.255 87.3903 139.634 84.7823 140.472C73.1007 143.981 68.138 149.372 64.218 154.608C60.298 159.844 55.5313 162.886 46.97 167.834C43.3087 169.943 39.3809 172.012 35.9156 174.152L35.8372 174.206C34.0822 175.179 32.3954 176.268 30.7883 177.466C28.5931 179.325 26.6644 181.247 25.8726 183.278C25.0807 185.308 25.4727 187.463 27.8091 189.502C28.5822 190.186 29.5141 190.67 30.5217 190.91C31.8061 191.215 33.121 191.377 34.4417 191.392C37.0384 191.478 39.6366 191.274 42.1876 190.785C44.205 190.382 46.185 189.812 48.1068 189.081C54.2636 186.803 59.9278 183.384 64.7982 179.006Z" fill="black"/>
<path d="M28.9609 75.7497C28.318 77.4379 26.4521 81.0167 26.5697 81.4679C26.907 82.5852 26.9448 83.7705 26.6795 84.9067C26.5148 85.7703 18.9884 88.7033 18.9884 88.7033L18.8081 87.5208C18.6853 86.7304 18.7885 85.9218 19.106 85.1868C20.5434 81.9847 21.6188 78.6344 22.3126 75.1973L28.9609 75.7497Z" fill="#FFA8A7"/>
<path d="M26.7701 84.1445L18.8125 87.7L18.9614 88.7036C18.9614 88.7036 26.4879 85.7705 26.6525 84.907C26.7701 84.6269 26.7701 84.3857 26.7701 84.1445Z" fill="#F28F8F"/>
<path d="M2.66083 99.3307L0.269625 123.713C0.152025 124.896 0.928186 125.658 1.90035 126.358L4.33859 128.093C4.60812 128.325 4.92457 128.498 5.26669 128.598C5.60881 128.699 5.96867 128.726 6.32211 128.677C6.81794 128.601 7.30076 128.457 7.75683 128.249H7.81171L7.96066 128.179L35.8554 115.599C36.855 115.146 37.7172 114.44 38.3556 113.553C38.9941 112.665 39.3863 111.627 39.4931 110.542L41.6648 88.322C41.6775 88.0445 41.6236 87.768 41.5078 87.5151C41.392 87.2623 41.2174 87.0402 40.9984 86.8672L36.8354 83.9186C36.6036 83.7749 36.3416 83.6861 36.0697 83.6592C35.7978 83.6322 35.5232 83.6677 35.2674 83.763L3.60162 98.0393C3.35137 98.1645 3.13597 98.3488 2.97442 98.5761C2.81063 98.7992 2.70309 99.0579 2.66083 99.3307Z" fill="#37474F"/>
<path d="M2.66083 99.3309L0.269625 123.713C0.152025 124.896 0.928186 125.658 1.90035 126.359L4.33859 128.094C4.60812 128.326 4.92457 128.498 5.26669 128.598C5.60881 128.699 5.96867 128.726 6.32211 128.677C6.81794 128.601 7.30076 128.457 7.75683 128.249C6.67491 128.63 5.92227 128.016 6.03987 126.81L8.28994 103.836C8.34603 103.43 8.49927 103.043 8.73683 102.707L2.9509 98.5996C2.79886 98.818 2.6996 99.0683 2.66083 99.3309Z" fill="#263238"/>
<path d="M8.29347 103.828C8.35934 103.413 8.52193 103.019 8.76828 102.677C9.01463 102.335 9.33795 102.056 9.71252 101.86L39.6143 88.3769C40.7981 87.8401 41.6684 88.4547 41.5351 89.7384L39.5045 110.527C39.397 111.613 39.0035 112.652 38.3637 113.539C37.7238 114.427 36.86 115.132 35.8589 115.584L7.95636 128.164C6.77252 128.701 5.91012 128.086 6.03556 126.802L8.29347 103.828Z" fill="#455A64"/>
<path d="M40.3904 89.3486C40.3853 89.4393 40.3853 89.5302 40.3904 89.6209L38.352 110.409C38.2641 111.291 37.945 112.135 37.4264 112.857C36.9079 113.58 36.208 114.154 35.3963 114.525L7.50159 127.105C7.41189 127.146 7.31692 127.175 7.21935 127.191C7.21935 127.191 7.21935 127.058 7.21935 126.918L9.46942 103.944C9.50277 103.728 9.58689 103.524 9.71495 103.347C9.84301 103.17 10.0114 103.025 10.2064 102.925L40.1003 89.4342C40.19 89.393 40.285 89.3642 40.3825 89.3486M40.3825 88.1816C40.1102 88.1899 39.8428 88.2562 39.5985 88.3761L9.68895 101.859C9.31439 102.055 8.99105 102.335 8.7447 102.676C8.49835 103.018 8.33577 103.412 8.2699 103.827L6.04335 126.825C5.94927 127.79 6.41183 128.381 7.15663 128.381C7.42874 128.371 7.69574 128.305 7.94063 128.186L35.8353 115.606C36.8364 115.154 37.7002 114.449 38.3401 113.562C38.98 112.674 39.3734 111.635 39.481 110.549L41.5115 89.761C41.6134 88.7963 41.143 88.205 40.3982 88.205L40.3825 88.1816Z" fill="#37474F"/>
<path d="M38.1881 84.876L6.47529 99.339C6.02764 99.5439 5.6417 99.8613 5.35567 100.26C5.06965 100.658 4.89346 101.124 4.84457 101.611L2.38281 126.701L2.81401 127.012L5.29929 101.657C5.34151 101.25 5.48935 100.86 5.7284 100.526C5.96746 100.192 6.2896 99.9252 6.66346 99.7513L38.6193 85.1794L38.1881 84.876Z" fill="#B0C4CD"/>
<path opacity="0.2" d="M5.35418 100.265C5.06755 100.661 4.89172 101.125 4.84457 101.611L2.38281 126.701L2.81401 127.012L5.29929 101.657C5.34405 101.251 5.49246 100.863 5.7305 100.529L5.35418 100.265Z" fill="black"/>
<path opacity="0.2" d="M5.73569 100.529C5.9724 100.193 6.29419 99.9248 6.66865 99.7513L38.6245 85.1794L38.1933 84.876L6.48049 99.339C6.03169 99.5451 5.64516 99.8643 5.35938 100.265" fill="black"/>
<path d="M27.22 86.9602L26.8516 90.7335L28.2549 91.7294L28.7488 86.719C28.7488 86.4623 28.5999 86.3378 28.3647 86.4467L27.22 86.9602Z" fill="#B0C4CD"/>
<path opacity="0.4" d="M27.22 86.9602L26.8516 90.7335L28.2549 91.7294L28.7488 86.719C28.7488 86.4623 28.5999 86.3378 28.3647 86.4467L27.22 86.9602Z" fill="black"/>
<path d="M16.4006 89.6835L15.7969 95.7908L17.1375 96.7477L18.1489 96.2887L18.6428 91.2784C18.6641 91.1385 18.7186 91.0056 18.8017 90.8906C18.8849 90.7757 18.9943 90.6819 19.121 90.6171L26.765 87.1472L28.333 86.4314C28.5682 86.3225 28.7407 86.4314 28.7172 86.7037L28.2233 91.7141L29.2346 91.2628L29.8383 85.1477V85.0699C29.832 84.9416 29.798 84.8161 29.7385 84.702C29.6789 84.5879 29.5953 84.4878 29.4934 84.4086L28.9289 84.0041C28.8124 83.9336 28.6815 83.89 28.5458 83.8765C28.4101 83.8631 28.2731 83.8801 28.1449 83.9263L16.8788 89.0066C16.7497 89.0724 16.6387 89.1684 16.5554 89.2864C16.472 89.4043 16.4189 89.5406 16.4006 89.6835Z" fill="#B0C4CD"/>
<path opacity="0.2" d="M17.7443 90.6328L17.1406 96.7479L18.152 96.2889L18.6459 91.2785C18.6672 91.1386 18.7217 91.0058 18.8049 90.8908C18.888 90.7758 18.9974 90.6821 19.1241 90.6173L26.7681 87.1474L28.3361 86.4316C28.5713 86.3227 28.7438 86.4316 28.7203 86.7039L28.2264 91.7142L29.2377 91.263L29.8414 85.1479V85.0701C29.8414 84.8678 29.6689 84.7823 29.4573 84.8756L18.1912 89.956C18.0691 90.0269 17.9653 90.125 17.8878 90.2424C17.8103 90.3598 17.7612 90.4934 17.7443 90.6328Z" fill="black"/>
<path d="M25.5753 86.6802C25.7387 86.6813 25.8977 86.7329 26.0301 86.828C26.1347 86.6575 26.2823 86.517 26.4582 86.4201C26.6341 86.3233 26.8324 86.2735 27.0336 86.2757C27.122 86.2647 27.2117 86.2822 27.2893 86.3256C27.367 86.369 27.4285 86.4361 27.4648 86.5168C27.4766 86.5733 27.4766 86.6316 27.4648 86.688C27.4125 87.2534 27.3341 87.8135 27.2296 88.3685C27.2101 88.7814 27.0466 89.1746 26.767 89.481C26.6375 89.5889 26.4823 89.662 26.3162 89.6934C26.1501 89.7247 25.9787 89.7132 25.8184 89.66C25.6994 89.9264 25.4798 90.136 25.2069 90.2435C25.1441 90.2435 24.3523 90.3368 24.4229 90.2435C24.2676 90.5733 24.0086 90.8442 23.6848 91.0154C23.361 91.1865 22.99 91.2487 22.6275 91.1926C22.6275 91.1926 22.4158 91.7995 21.2947 91.6672C20.936 91.5883 20.6022 91.4238 20.3221 91.1879C20.042 90.952 19.8242 90.6519 19.6875 90.3135C19.7502 89.9789 19.8678 89.8389 20.252 89.6911C20.4401 89.6133 20.644 89.5355 20.8321 89.4421C21.0771 89.2637 21.287 89.0422 21.4515 88.7886C21.6325 88.5532 21.8696 88.3661 22.1414 88.244C22.2795 88.1872 22.4305 88.1688 22.5783 88.1908C22.726 88.2127 22.865 88.2741 22.9803 88.3685C23.0289 88.14 23.1498 87.9328 23.3253 87.7772C23.462 87.6109 23.6536 87.4979 23.8662 87.4582C23.9289 87.4582 24.4385 87.536 24.3758 87.6683C24.5113 87.332 24.7464 87.0445 25.0501 86.8436C25.2076 86.7441 25.3888 86.6877 25.5753 86.6802Z" fill="#FFA8A7"/>
<path d="M30.0877 75.1815C29.6017 77.4144 28.3786 79.4216 28.9196 81.2966C29.2881 82.5647 29.39 82.4325 29.241 83.724C29.1586 84.3022 29.0167 84.8705 28.8177 85.42C28.7236 85.6845 28.6295 85.9568 28.5276 86.198C28.433 86.4845 28.315 86.7629 28.1748 87.0305C27.9642 87.3588 27.7255 87.6685 27.4613 87.9563C27.0385 88.4888 26.5453 88.9624 25.9953 89.3645L25.9012 89.4189C25.8288 89.4369 25.7527 89.4341 25.6818 89.4106C25.611 89.3872 25.5484 89.3442 25.5013 89.2867C25.0074 88.7498 25.3759 87.9718 25.6346 87.435C25.9857 86.8558 26.1952 86.203 26.2461 85.5289C26.2461 85.4433 26.2461 85.1788 26.2461 84.7509L25.5484 84.5798C25.5484 84.5798 23.2983 84.0429 23.2591 82.9615C23.2199 81.8801 24.0823 80.8454 24.733 79.5772C25.3837 78.3091 25.6503 77.4844 26.301 74.2168L30.0877 75.1815Z" fill="#FFA8A7"/>
<path d="M28.1744 87.0621C27.6506 87.8863 27.0089 88.6306 26.2693 89.2716C26.1438 89.3572 26.0419 89.5206 25.8145 89.5361C24.7718 89.3416 25.2657 87.9801 25.6185 87.3655C25.9563 86.8158 26.1703 86.2 26.2458 85.5605C26.2333 86.2136 26.0554 86.8531 25.7283 87.42C25.4539 87.9801 24.9443 89.1316 25.8145 89.3883C26.7209 88.742 27.5152 87.9537 28.1665 87.0543L28.1744 87.0621Z" fill="#F28F8F"/>
<path d="M26.0673 84.5722C25.7929 84.4321 25.4949 84.331 25.2362 84.1676C25.0347 84.0337 24.8616 83.8619 24.7266 83.6619C24.3474 83.1829 24.1603 82.5815 24.2013 81.9737C24.2013 81.9737 24.2013 81.8725 24.1465 81.9737C24.0458 82.3087 24.0211 82.6617 24.0739 83.0073C24.1268 83.353 24.256 83.6828 24.4522 83.9731C24.6271 84.2439 24.8633 84.4704 25.1421 84.6344C25.2829 84.72 25.4363 84.783 25.5969 84.8211C25.7528 84.8834 25.927 84.8834 26.0829 84.8211C26.1457 84.7278 26.1143 84.5955 26.0673 84.5722Z" fill="#F28F8F"/>
<path d="M43.4436 30.3922C38.5907 30.0188 34.7099 30.9757 32.1932 37.3164C29.363 44.4818 26.5641 50.0056 25.1372 55.2104C23.7103 60.4153 21.6562 76.9011 21.6562 76.9011C21.6562 76.9011 25.3254 80.0753 29.363 78.6282L35.4782 59.894L43.4201 44.7308L43.4436 30.3922Z" fill="#E6E6E6"/>
<path d="M98.6132 148.68C98.9503 148.446 99.452 149.31 99.4599 149.855C99.4599 151.411 98.4407 153.69 96.1514 155.713C93.8621 157.736 88.3663 159.875 86.7826 160.669C85.1989 161.462 82.9724 163.726 81.569 164.831C79.0053 166.831 76.6533 167.126 75.2264 166.737C74.9718 166.642 74.7404 166.494 74.5472 166.303C74.354 166.113 74.2034 165.884 74.1053 165.632C73.533 164.559 73.5095 164.294 73.6271 164.24L98.6132 148.68Z" fill="#37474F"/>
<path d="M72.2451 160.98C72.6793 162.385 73.3185 163.719 74.1424 164.94C74.5401 165.193 74.9875 165.361 75.4551 165.43C75.9226 165.5 76.3998 165.471 76.8551 165.344C78.9936 164.829 80.9537 163.755 82.5312 162.232C83.6455 161.179 84.9014 160.283 86.2631 159.572C87.9173 158.794 91.6413 157.175 93.2563 156.312C94.7725 155.504 96.1064 154.397 97.1763 153.06C97.9603 151.986 98.956 150.018 98.8541 149.006C98.1328 146.906 97.2861 145.894 95.8279 145.848C94.3696 145.801 92.5272 146.626 90.1282 147.707C89.4069 148.034 88.5131 148.485 88.1211 148.641C86.6315 149.263 85.2674 149.885 84.2011 150.407C83.3043 150.912 82.3053 151.212 81.2768 151.286C80.8054 151.323 80.3352 151.2 79.944 150.936C79.4501 150.57 79.0581 149.854 78.6034 150.049C78.6034 150.049 71.4455 155.759 70.8496 156.179C70.2538 156.6 71.124 157.455 72.2451 160.98Z" fill="#455A64"/>
<path d="M88.6162 148.252C88.9619 148.302 89.2931 148.424 89.5884 148.61C89.9084 148.813 90.2031 149.053 90.4665 149.325C90.7957 149.668 90.341 150.018 89.8863 149.668C89.5275 149.362 89.1326 149.101 88.7103 148.89C88.4092 148.75 88.0698 148.715 87.746 148.789L87.3226 148.968C87.2678 148.61 88.2007 148.221 88.6162 148.252Z" fill="#FAFAFA"/>
<path d="M84.827 149.808C84.9509 149.718 85.0923 149.655 85.2422 149.623C85.3921 149.591 85.5471 149.59 85.6973 149.621C86.0811 149.699 86.4362 149.879 86.7243 150.143C87.0783 150.453 87.4061 150.791 87.7043 151.154C87.8768 151.395 87.2653 151.722 87.0379 151.473C86.7479 151.157 86.4417 150.856 86.1206 150.571C85.9481 150.43 85.2582 149.933 84.7957 150.096L84.5997 150.189C84.5448 150.104 84.5997 149.971 84.7094 149.909C84.7449 149.871 84.7843 149.838 84.827 149.808Z" fill="#FAFAFA"/>
<path d="M82.6974 150.943C82.8951 150.873 83.1112 150.873 83.3089 150.943C83.556 151.051 83.7837 151.198 83.9832 151.379C84.3374 151.722 84.6385 152.115 84.8769 152.546C85.0729 152.873 84.4144 153.122 84.2732 152.911C83.9658 152.321 83.5059 151.821 82.9404 151.464C82.6842 151.316 82.3973 151.229 82.1016 151.208C82.1016 151.145 82.1721 151.083 82.2348 151.06C82.2976 151.037 82.5876 150.943 82.6974 150.943Z" fill="#FAFAFA"/>
<path d="M65.8281 148.018C65.8281 148.018 69.8422 155.075 70.9555 156.646C71.3083 157.152 72.4451 156.802 73.0958 156.74C73.8743 156.609 74.6693 156.609 75.4478 156.74C77.5176 157.315 78.6857 157.066 78.1996 154.328C78.0977 153.768 78.2859 153.394 78.9836 153.169C79.5085 153.071 80.0108 152.879 80.4654 152.601C80.5046 152.515 80.4027 152.43 80.3164 152.391C79.9693 152.253 79.6561 152.042 79.3978 151.774C79.1395 151.505 78.9421 151.185 78.819 150.835C77.3843 147.762 76.0828 141.421 76.0828 141.421L65.8281 148.018Z" fill="#FFA8A7"/>
<path d="M35.3906 163.796C36.6215 161.843 37.2879 158.085 39.9927 150.438L50.0357 157.743L44.2812 168.837C44.0804 169.34 43.9281 169.861 43.8265 170.393C42.4858 172.346 35.3906 163.796 35.3906 163.796Z" fill="#FFA8A7"/>
<path d="M31.6659 167.966C31.6659 167.849 31.6267 166.931 31.6659 166.822C31.9324 165.827 32.5518 165.554 33.3436 165.002C34.1442 164.47 34.8784 163.846 35.531 163.142C35.7975 162.777 35.8446 162.59 36.2601 162.427C36.7952 162.259 37.3606 162.209 37.917 162.281C38.4734 162.352 39.0076 162.542 39.4823 162.839C41.7559 164.029 42.4537 165.461 42.3204 167.009C42.2263 168.192 42.1244 169.763 43.175 170.463C43.614 170.759 44.3039 168.907 44.3039 168.907C44.9468 169.989 44.0374 171.475 43.567 173.661C43.2874 174.865 43.266 176.113 43.5043 177.325C43.7316 179.239 43.9982 179.231 45.0252 179.364C45.9033 179.48 48.4121 179.317 49.9331 180.367C50.5177 180.7 50.9831 181.206 51.2642 181.814C51.5453 182.422 51.6281 183.102 51.5011 183.759C51.2267 184.499 48.9452 188.07 40.6113 186.731C38.1887 186.35 33.1084 182.577 33.1868 182.219C33.2298 181.86 33.2298 181.497 33.1868 181.138C33.1868 180.29 33.1241 179.449 33.0849 178.601C33.1168 177.792 33.0695 176.982 32.9438 176.182C32.7917 175.523 32.6869 174.855 32.6302 174.182C32.4734 172.486 32.314 170.788 32.1519 169.086C32.0422 168.557 31.6031 168.448 31.6659 167.966Z" fill="#455A64"/>
<path d="M30.6195 167.632C29.8355 168.41 30.2902 170.744 31.4035 173.459C31.8974 174.681 32.8069 176.781 32.5403 179.014C32.2737 181.247 32.2189 182.297 32.799 183.348C33.7085 184.981 38.5536 187.074 41.423 187.736C39.6997 185.33 38.6968 182.49 38.5301 179.543C38.2478 174.619 37.8637 171.444 35.5979 169.258C32.6971 166.504 30.6195 167.632 30.6195 167.632Z" fill="#263238"/>
<path d="M51.4481 183.721C51.4481 183.721 49.7781 186.833 43.3258 186.731C40.7857 186.693 39.4058 185.463 39.3588 181.628C39.2882 177.014 38.9119 172.354 37.4066 170.059C35.9014 167.764 33.4866 166.659 31.6442 166.822C31.2143 166.942 30.8469 167.22 30.6172 167.6C30.6172 167.6 32.4753 166.994 35.3682 169.374C37.5085 171.133 38.0809 174.82 38.0495 179.379C38.0495 181.34 37.9162 183.573 38.4964 185.059C38.7608 185.716 39.1775 186.302 39.7128 186.77C40.2481 187.238 40.8869 187.574 41.5775 187.751C45.082 188.731 49.8879 187.12 51.0953 185.65C51.2916 185.373 51.4248 185.057 51.4858 184.724C51.5467 184.391 51.5338 184.048 51.4481 183.721Z" fill="#37474F"/>
<path d="M43.6976 178.492C43.9624 178.679 44.1492 178.956 44.2228 179.27C44.2542 179.663 44.1791 180.057 44.0054 180.411C43.8318 180.765 43.5658 181.067 43.235 181.285C42.8509 181.519 42.5137 181.441 43.1253 180.632C43.5163 179.987 43.7148 179.245 43.6976 178.492Z" fill="#FAFAFA"/>
<path d="M43.3495 176.104C43.3495 176.104 43.5533 176.228 43.6082 176.882C43.5065 177.695 43.0905 178.437 42.4479 178.951C41.7658 179.278 42.1343 178.5 42.4479 178.119C42.8955 177.522 43.2035 176.833 43.3495 176.104Z" fill="#FAFAFA"/>
<path d="M43.5775 173.459C43.5775 173.459 43.7971 173.521 43.5775 174.408C43.2619 174.961 42.7674 175.391 42.1742 175.63C41.7351 175.684 41.5235 175.466 42.0644 175.077C42.4486 174.774 43.4991 173.887 43.5775 173.459Z" fill="#FAFAFA"/>
<path d="M60.0449 74.7928C60.0449 74.7928 63.9649 79.4609 66.3169 88.1122C68.4476 96.1816 70.0736 104.374 71.1855 112.643C71.75 116.338 72.2831 119.901 73.5846 127.012C74.8154 133.765 77.873 148.368 77.873 148.368C77.873 148.368 77.3399 150.601 74.3058 151.916C72.3142 152.694 70.1572 152.962 68.0338 152.694C68.0338 152.694 65.9562 149.17 61.6286 140.884C59.6459 137.281 58.2989 133.369 57.6458 129.315C57.1272 126.563 56.8284 123.774 56.7521 120.975L40.4684 93.6049C39.0597 91.9499 37.9557 90.0616 37.207 88.0266C34.9098 82.3083 37.842 74.0615 37.842 74.0615L60.0449 74.7928Z" fill="#37474F"/>
<path d="M60.0449 74.7928C60.0449 74.7928 63.9649 79.4609 66.3169 88.1122C68.4476 96.1816 70.0736 104.374 71.1855 112.643C71.75 116.338 72.2831 119.901 73.5846 127.012C74.8154 133.765 77.873 148.368 77.873 148.368C77.873 148.368 77.3399 150.601 74.3058 151.916C72.3142 152.694 70.1572 152.962 68.0338 152.694C68.0338 152.694 65.9562 149.17 61.6286 140.884C59.6459 137.281 58.2989 133.369 57.6458 129.315C57.1272 126.563 56.8284 123.774 56.7521 120.975L40.4684 93.6049C39.0597 91.9499 37.9557 90.0616 37.207 88.0266C34.9098 82.3083 37.842 74.0615 37.842 74.0615L60.0449 74.7928Z" fill="#37474F"/>
<path d="M70.8543 110.534C69.796 102.976 68.2775 95.4884 66.3071 88.1123C65.6669 85.752 64.8358 83.4468 63.8219 81.2192L43.234 80.8613C41.666 84.4168 40.49 88.8592 43.8456 94.2896L44.7236 100.763L56.7267 120.991C56.803 123.79 57.1018 126.578 57.6204 129.331C58.2735 133.384 59.6204 137.297 61.6031 140.9L61.9795 141.615C63.5217 139.425 64.8975 137.123 66.0955 134.73C67.2715 131.96 68.0868 126.608 69.3177 119.839C69.7646 117.357 70.3526 113.74 70.8543 110.534Z" fill="#263238"/>
<path d="M46.4927 74.7928C44.1216 77.5578 42.7283 81.0173 42.5257 84.6423C42.3651 88.1567 43.4776 91.6119 45.6617 94.3829C46.4457 106.24 48.8369 129.074 48.8369 129.074C45.7009 132.303 44.862 134.38 43.0353 140.168C41.9298 143.677 38.6919 154.289 37.4375 158.249C45.0972 158.576 46.5397 165.088 46.5397 165.088C46.5397 165.088 55.8223 150.236 60.5106 141.849C63.9759 135.625 64.4306 134.17 65.3557 130.474C66.2809 126.779 66.4769 123.356 67.6137 115.646C68.7505 107.936 70.7497 97.3004 71.3298 89.7071C71.91 82.1138 71.9884 74.0615 71.9884 74.0615L46.4927 74.7928Z" fill="#37474F"/>
<path d="M36.3672 84.0817C37.2815 83.7879 38.0832 83.2231 38.6643 82.4635C38.938 81.9351 39.1384 81.3725 39.2601 80.7908C39.4934 79.8119 39.8162 78.8562 40.2245 77.9355L40.8125 78.2001C40.4268 79.0915 40.1147 80.0126 39.8795 80.9542C39.7482 81.6 39.5238 82.2236 39.2131 82.8058C38.5225 83.7334 37.5406 84.4067 36.4221 84.7197C36.4064 84.5096 36.3829 84.2996 36.3672 84.0817Z" fill="#263238"/>
<path d="M51.7148 90.8738C51.5767 90.888 51.4374 90.888 51.2993 90.8738C50.3585 90.6715 49.6294 90.0414 48.1633 88.1975C47.0578 86.7971 47.1676 85.7857 47.3793 84.1208C47.4498 83.5061 48.1006 80.2308 48.1633 79.3672L48.7827 79.7095C48.7827 80.5886 48.1163 83.5995 48.0457 84.1908C47.8654 85.8479 47.7791 86.6104 48.7199 87.8085C50.0606 89.5123 50.7034 90.0802 51.4718 90.2436C53.1548 90.2809 54.8253 89.9488 56.3639 89.2711C56.8657 88.9288 57.7124 84.6031 58.2063 80.8687L58.8492 80.9543C58.5983 82.8604 57.7046 89.1311 56.7324 89.8002C55.7603 90.4693 53.0163 90.9127 51.7148 90.8738Z" fill="#263238"/>
<path d="M37.675 33.8311C35.4876 37.9778 35.7542 41.6966 36.3892 47.5238C36.9694 52.8998 37.3771 56.2219 37.8788 62.866C38.2648 66.9966 38.1146 71.1592 37.432 75.2518C37.432 75.2518 37.6436 78.4649 47.1849 80.8767C63.9468 85.1168 71.9907 80.2854 71.9907 80.2854C71.9907 80.2854 72.3983 70.9494 71.7476 58.6648C71.0185 44.9331 70.7755 42.9259 69.7092 39.6583C68.8617 37.7421 67.3361 36.2004 65.4208 35.3248C63.7508 34.5468 59.7681 33.2864 57.4004 32.3762C53.5874 31.057 49.5766 30.3888 45.5385 30.4001C40.764 30.0811 38.8118 31.676 37.675 33.8311Z" fill="#F5F5F5"/>
<path d="M44.3625 31.1317C44.7232 31.1317 45.0995 31.1317 45.4836 31.1317H45.7659C49.6317 31.1446 53.4684 31.7966 57.1182 33.0612C58.0825 33.4268 59.3134 33.8392 60.5051 34.2826C62.2848 34.905 64.1272 35.5508 65.0915 35.9864C66.8319 36.7661 68.2258 38.1493 69.0115 39.8764C70.0228 42.9884 70.258 44.6767 71.0028 58.6418C71.5595 69.2226 71.3321 77.7417 71.2616 79.7411C70.1483 80.278 66.4556 81.7795 60.1444 81.7795C55.838 81.7641 51.5503 81.2153 47.3809 80.1457C39.486 78.154 38.3649 75.6722 38.2316 75.2754C38.8924 71.1597 39.0373 66.9785 38.6628 62.8274C38.2395 57.2025 37.8788 53.9505 37.432 49.8348L37.1654 47.4542C36.5382 41.6425 36.2873 38.1648 38.3728 34.2282C39.1568 32.7188 40.4974 31.1784 44.3625 31.1784M44.3625 30.4004C40.4425 30.4004 38.7177 31.9019 37.675 33.8703C35.4876 38.017 35.7542 41.7359 36.3892 47.5631C36.9694 52.9391 37.3771 56.2611 37.8788 62.9052C38.2648 67.0358 38.1146 71.1984 37.432 75.291C37.432 75.291 37.6436 78.5041 47.1849 80.9159C51.4019 82.0276 55.7422 82.6131 60.1052 82.6586C68.1099 82.6586 71.9907 80.3246 71.9907 80.3246C71.9907 80.3246 72.3983 70.9887 71.7476 58.704C71.0185 44.9723 70.7755 42.9651 69.7092 39.6975C68.8617 37.7813 67.3361 36.2396 65.4208 35.364C63.7508 34.586 59.7681 33.3257 57.4004 32.4154C53.6607 31.1166 49.7281 30.4486 45.7659 30.4393H45.5385C45.123 30.4393 44.7545 30.4393 44.3625 30.4393V30.4004Z" fill="#E0E0E0"/>
<path d="M57.8131 27.6777L57.3427 32.7269C54.5516 33.326 47.7857 32.8981 46.5156 31.1709L46.7822 26.5029L57.8131 27.6777Z" fill="#FFA8A7"/>
<path d="M65.0708 14.7314C65.0708 14.7314 66.3643 15.7039 67.3443 19.0571L65.4314 20.4497C64.8042 18.0924 64.1221 15.6962 65.0708 14.7314Z" fill="#F28F8F"/>
<path d="M60.1293 5.34833C64.8881 5.65953 65.68 8.11801 64.9744 16.1625C66.6443 23.8025 64.3393 26.8289 63.3436 27.8325C61.1092 29.0229 58.8278 29.2251 55.731 28.4238C53.379 27.8092 47.3971 26.0509 44.8961 22.371C41.9483 18.0453 41.18 11.479 44.316 9.01271C48.7221 5.55061 58.2398 5.22385 60.1293 5.34833Z" fill="#FFA8A7"/>
<path d="M63.3403 27.8256C62.7915 28.3779 59.6163 29.3816 57.6562 29.1637L57.8131 27.6777C59.6398 27.9792 61.4998 28.029 63.3403 27.8256Z" fill="#F28F8F"/>
<path d="M60.6339 10.9036C60.5336 11.2501 60.3831 11.5804 60.187 11.8839C59.6318 12.6361 58.9069 13.2489 58.0702 13.6733C58.4217 14.6562 58.6354 15.6824 58.7053 16.7231C58.7328 17.0593 58.6562 17.3959 58.4858 17.6878C58.4313 17.7941 58.3483 17.8833 58.2459 17.9457C58.1435 18.0081 58.0257 18.0411 57.9056 18.0411C57.7855 18.0411 57.6677 18.0081 57.5653 17.9457C57.4629 17.8833 57.3798 17.7941 57.3254 17.6878C57.0716 17.1163 56.7477 16.578 56.3611 16.0851C55.8633 15.5093 55.1675 15.1377 54.409 15.0426C51.5395 14.7625 51.5317 19.1971 52.6763 20.6986C54.5579 23.1493 56.1102 21.5778 56.1102 21.5778C56.1102 21.5778 57.0745 25.3666 54.307 27.0238C54.307 27.0238 49.8539 28.113 46.812 26.5803C45.4243 23.7406 43.5427 22.0835 42.0531 19.0571C39.4346 13.7589 40.689 9.11422 42.4686 8.16506C41.9669 5.69102 43.4878 3.26366 46.7101 1.75434C49.9323 0.245019 54.2757 1.02302 57.6861 1.55984C59.6996 1.8799 61.7592 1.76311 63.7229 1.21752C63.9978 1.13199 64.2821 1.07974 64.5696 1.06192C64.7178 1.05046 64.8666 1.07492 65.0032 1.1332C65.1398 1.19148 65.26 1.28182 65.3536 1.39646C65.4479 1.55849 65.4975 1.74229 65.4975 1.92939C65.4975 2.11649 65.4479 2.30029 65.3536 2.46232C65.1546 2.77724 64.9765 3.1047 64.8205 3.4426C65.1772 3.38936 65.5417 3.45621 65.8557 3.63247C66.1698 3.80872 66.4153 4.08425 66.5531 4.4151C66.7539 4.87777 66.8298 5.38434 66.7734 5.88497C66.7171 6.3856 66.5304 6.86306 66.2317 7.27036C65.6207 8.07855 64.7537 8.65944 63.7699 8.91972C62.7909 9.17604 61.7789 9.28617 60.7672 9.24648C60.862 9.80128 60.8162 10.3708 60.6339 10.9036Z" fill="#263238"/>
<path d="M57.5577 30.5713C58.2868 30.5713 59.0787 32.0262 60.4977 33.4966C57.3947 35.0053 53.8902 35.501 50.486 34.9126C44.4884 34.0179 43.3359 30.4002 43.3359 30.4002C43.3359 30.4002 44.7079 29.3499 45.4292 28.6497C46.3073 27.7939 46.7385 27.7783 46.7385 27.7783L46.6679 28.9998C46.6679 28.9998 47.8204 30.1823 51.4738 30.9137C53.4929 31.3812 55.6049 31.2624 57.5577 30.5713Z" fill="#E6E6E6"/>
<path d="M78.7789 65.6052C78.7789 65.6052 77.0619 57.0472 75.8153 51.0955C74.5688 45.1438 75.0313 38.2118 65.5606 35.8467C63.9926 38.1807 62.9734 41.8606 63.4987 46.3964C64.024 50.9321 66.1173 58.0664 66.6347 60.4548C67.5762 64.1864 69.1168 67.7433 71.1976 70.9889C74.2003 75.4235 79.8216 82.9235 82.0795 85.6776C83.1301 86.9535 84.0395 88.245 85.0117 89.5676C86.1012 90.9072 87.2826 92.1706 88.5475 93.3487C89.1343 93.9312 89.8638 94.3522 90.6643 94.5701C91.1739 94.7102 91.6835 94.5157 92.1618 94.6479C92.64 94.7802 92.9458 95.2392 93.5573 95.2548C94.1688 95.2703 94.749 94.8269 95.3448 94.8813C95.9629 95.0097 96.5888 95.0981 97.2185 95.1458C97.7449 95.0648 98.2832 95.1128 98.7865 95.2859C99.2413 95.4726 99.8841 96.0639 100.409 95.7682C100.935 95.4726 100.817 94.788 100.613 94.2589C100.129 93.2581 99.3313 92.4394 98.3397 91.9249C97.3826 91.3133 96.3904 90.7574 95.3683 90.26C94.3882 89.7938 93.5236 89.1191 92.836 88.2839C92.3499 87.7393 92.052 86.9068 93.0242 86.899C94.1923 86.899 95.6506 87.3269 96.7168 86.5878C97.4538 86.0821 97.2029 85.4364 96.4894 85.1252C95.312 84.6194 94.1746 84.0265 93.0869 83.3514C91.9736 82.6667 90.9465 81.8732 89.8254 81.2196C89.2236 80.8862 88.6003 80.5925 87.9595 80.3405C86.1955 79.6092 85.4272 77.8587 84.5334 76.3105C83.2947 74.1787 80.1665 68.476 78.7789 65.6052Z" fill="#FFA8A7"/>
<path d="M65.1109 56.4864C65.1109 56.4864 63.4488 50.0056 63.0176 47.2904C62.5864 44.5752 62.3512 37.5343 65.1815 35.2236C67.2199 35.7138 72.6844 36.6785 74.2602 41.7822C75.836 46.8859 78.1802 60.3064 78.1802 60.3064L85.2989 76.9789C85.2989 76.9789 85.2989 78.5349 82.3432 80.5344C79.3875 82.5338 77.8431 81.8569 77.8431 81.8569C77.8431 81.8569 71.9709 73.0344 69.125 68.6854C67.2277 65.7679 66.7573 63.8073 65.1109 56.4864Z" fill="#E6E6E6"/>
</svg>
