<svg width="119" height="146" viewBox="0 0 119 146" fill="none" xmlns="http://www.w3.org/2000/svg">
<path d="M37.8047 18.9463L41.9834 37.5094L59.1687 47.4911L54.8959 28.7335L37.8047 18.9463Z" fill="#B0C4CD"/>
<path opacity="0.2" d="M37.8047 18.9463L41.9834 37.5094L59.1687 47.4911L54.8959 28.7335L37.8047 18.9463Z" fill="black"/>
<path d="M0.757812 110.517L54.893 28.7337L37.8018 18.9464L102.78 0.749023L114.61 62.9501L97.5661 53.1862L43.4309 134.962L0.757812 110.517Z" fill="#B0C4CD"/>
<path opacity="0.2" d="M0.757812 110.517L54.893 28.7337L37.8018 18.9464L102.78 0.749023L114.61 62.9501L97.5661 53.1862L43.4309 134.962L0.757812 110.517Z" fill="white"/>
<path d="M97.5648 53.1865L43.4531 134.962L53.0336 145.776L101.9 71.9674L118.905 81.7158L114.609 62.9504L97.5648 53.1865Z" fill="#B0C4CD"/>
<path opacity="0.2" d="M97.5648 53.1865L43.4531 134.962L53.0336 145.776L101.9 71.9674L118.905 81.7158L114.609 62.9504L97.5648 53.1865Z" fill="black"/>
<path d="M10.3383 121.401L0.757812 110.595L43.4544 134.962L53.0349 145.776L10.3383 121.401Z" fill="#B0C4CD"/>
<path opacity="0.4" d="M10.3383 121.401L0.757812 110.595L43.4544 134.962L53.0349 145.776L10.3383 121.401Z" fill="black"/>
<path opacity="0.2" d="M101.898 71.9674L97.5625 53.1865L114.607 62.9504L118.903 81.7158L101.898 71.9674Z" fill="black"/>
</svg>
