<svg width="158" height="190" viewBox="0 0 158 190" fill="none" xmlns="http://www.w3.org/2000/svg">
<path d="M146.874 155.791C146.874 160.288 146.874 166.372 146.874 170.239C146.874 171.079 146.874 172.121 146.874 173.498C146.255 177.544 143.236 181.504 137.827 184.6C125.596 191.602 105.769 191.602 93.5386 184.6C87.2666 180.991 84.1777 176.214 84.3815 171.483C84.3815 171.079 84.4599 170.659 84.5069 170.223C84.5069 170.223 84.5069 170.223 84.5069 170.176C85.0401 165.578 85.4164 160.973 85.6751 156.655C86.0906 149.801 86.0357 146.782 85.9809 143.094C85.9103 138.543 84.0052 134.972 79.1679 130.934C74.3306 126.896 64.7109 113.095 64.7109 113.095L128.505 80.5508L146.639 137.563C146.639 137.563 146.874 151.294 146.874 155.791Z" fill="#FFA8A7"/>
<path d="M128.996 68.7415C128.996 68.7415 127.797 73.534 122.097 67.1855C116.397 60.837 107.068 51.1431 97.2365 41.8149C92.5325 37.3414 73.6538 22.2793 60.9922 10.8894C56.9546 6.75821 51.2236 3.8874 47.28 6.87492C43.3365 9.86244 43.36 17.2612 45.814 20.9178C48.0092 24.1621 52.7132 28.6589 56.3039 31.8876C56.3039 32.0821 56.2647 32.2766 56.2412 32.4711C55.5591 38.3606 54.3439 44.9813 53.7716 52.1156C53.4266 56.3713 48.2836 61.7239 48.3306 66.1196C49.8516 72.3436 58.1541 79.0111 64.0106 83.6635C69.8671 88.3159 72.4386 90.2065 72.3759 91.6769C72.274 93.9253 62.764 85.7408 58.5383 82.8622C58.7735 96.2204 50.1652 97.8309 50.1652 97.8309C51.4588 100.398 58.7892 106.062 69.2242 119.311C73.3402 124.547 115.237 90.1287 115.237 90.1287L125.186 83.788L132.187 72.2969L128.996 68.7415Z" fill="#FFA8A7"/>
<path d="M125.527 80.5281C121.607 85.4295 106.154 101.067 118.306 121.801C117.468 121.028 116.706 120.176 116.033 119.257C114.293 116.959 112.916 114.412 111.948 111.703C111.909 111.601 111.878 111.508 111.846 111.407C109.087 103.518 110.027 95.4812 115.178 88.6971C119.232 83.3678 126.609 78.1863 127.597 72.4369C127.597 72.2268 127.652 72.0167 127.667 71.8145C127.84 73.6194 128.044 77.4005 125.527 80.5281Z" fill="#F28F8F"/>
<path opacity="0.5" d="M45.0197 9.82324C43.4517 13.3398 43.9299 18.179 45.8037 20.9175C47.9989 24.1618 52.7029 28.6586 56.2936 31.8873L56.2466 32.3541C57.8146 33.7001 59.5315 35.1316 61.3975 36.7654C65.8976 40.6943 71.8482 45.7668 76.3405 49.7035C78.5906 51.6719 89.2765 60.2065 93.1573 63.6375C87.191 57.1412 73.7847 45.3545 67.0423 38.7415C61.9541 33.7701 54.4434 26.8303 52.0051 24.0606C49.5669 21.291 48.1322 19.3926 47.3011 18.3657C46.3526 17.1722 45.6607 15.7984 45.2683 14.3291C44.8759 12.8598 44.7913 11.3263 45.0197 9.82324Z" fill="#F28F8F"/>
<path d="M56.4752 103.573C57.6539 103.414 58.7874 103.018 59.8055 102.408C60.8237 101.798 61.7048 100.987 62.3944 100.025C63.9624 97.4342 64.2682 95.4192 63.8448 91.3736C63.6312 89.4834 63.2454 87.6164 62.6924 85.7953C61.2968 84.7995 59.8386 83.7258 58.545 82.8467C58.7802 96.2049 50.1719 97.8154 50.1719 97.8154C50.7599 98.9746 52.5866 100.78 55.3776 103.635C55.7461 103.627 56.1067 103.604 56.4752 103.573Z" fill="#F28F8F"/>
<path d="M49.5874 49.5949C49.2502 49.8983 54.017 54.4574 54.5187 54.7297C56.2827 55.71 59.6539 54.4963 61.1122 53.2826C62.0226 52.4952 62.7297 51.5028 63.1741 50.3884C64.7421 46.654 63.9581 42.3828 63.1741 38.4072C63.1545 38.0892 63.0667 37.7789 62.9166 37.4972C62.7665 37.2154 62.5576 36.9687 62.3038 36.7734C62.2098 38.8585 60.3595 39.761 58.9954 41.0135L55.0754 44.5846L49.5874 49.5949Z" fill="#F28F8F"/>
<path d="M60.4209 52.0449L85.3678 77.0343L56.2422 52.8074L60.4209 52.0449Z" fill="#F28F8F"/>
<path d="M57.0079 73.3935C58.2161 72.9972 59.3179 72.3342 60.2305 71.4542C61.1431 70.5742 61.8426 69.5002 62.2764 68.3132C62.9898 66.2826 62.8722 64.0731 62.7311 61.9258C62.7087 60.0967 62.3965 58.2826 61.806 56.5498L50.14 60.4865C49.1208 62.4237 48.2976 64.3765 48.329 66.1036C48.9484 68.6321 50.5712 71.1918 52.8527 73.6503C54.2391 73.8849 55.6615 73.797 57.0079 73.3935Z" fill="#F28F8F"/>
<path d="M53.906 31.7082C59.0334 31.2414 61.746 33.4743 62.875 38.0412C63.3415 40.6374 63.3415 43.295 62.875 45.8912C62.3889 49.2833 59.1589 53.3522 54.988 52.7454H54.7841C48.0417 51.6562 47.2812 48.0773 47.2812 42.2657C47.2812 36.454 49.3432 32.1206 53.906 31.7082Z" fill="#FFA8A7"/>
<path opacity="0.5" d="M59.9582 33.0547C60.3345 33.3737 62.5062 35.4898 62.5297 41.3404C62.5297 47.7355 59.3153 49.0582 55.7403 49.6339C52.1653 50.2096 47.3672 47.9923 47.3672 44.8336C47.6729 49.1359 49.1077 51.8356 54.7917 52.7536H54.9955C59.1664 53.3605 62.3965 49.2915 62.8825 45.8995C63.349 43.3033 63.349 40.6456 62.8825 38.0494C62.5138 36.101 61.4814 34.3375 59.9582 33.0547Z" fill="#F28F8F"/>
<path d="M54.0212 52.0998C58.7252 51.6719 61.1635 53.7103 62.214 57.8804C62.6362 60.2531 62.6362 62.6808 62.214 65.0535C61.775 68.1655 58.8115 71.8688 55.0091 71.2775H54.8209C48.6665 70.2817 47.9688 66.9986 47.9688 61.7082C47.9688 56.4178 49.8504 52.4733 54.0212 52.0998Z" fill="#FFA8A7"/>
<path opacity="0.5" d="M60.5513 54.3018C61.2099 55.2743 61.6881 57.6705 61.3353 61.3038C60.8257 66.0573 59.7673 68.3602 55.6199 68.6636C51.2844 68.9671 48.6188 66.9754 48.1562 64.8825C48.5718 68.3369 50.0379 70.523 54.8595 71.301H55.0476C58.85 71.8612 61.8135 68.189 62.2526 65.077C62.6748 62.7043 62.6748 60.2766 62.2526 57.9039C61.9555 56.5949 61.3749 55.3658 60.5513 54.3018Z" fill="#F28F8F"/>
<path d="M54.2728 80.8545C59.1336 80.4188 62.7713 82.7061 62.7713 86.8606V94.3061C62.7757 95.2415 62.5775 96.1668 62.1901 97.0195C61.8027 97.8722 61.2351 98.6323 60.5259 99.2484C59.8166 99.8644 58.9822 100.322 58.0792 100.59C57.1762 100.858 56.2257 100.931 55.292 100.802H55.1038C48.7142 99.7677 48.7926 93.9794 48.7142 90.9374C48.6358 87.8954 49.9451 81.2513 54.2728 80.8545Z" fill="#FFA8A7"/>
<path opacity="0.5" d="M60.4076 82.1777C62.5323 84.3795 61.7012 88.8685 61.5444 93.2954C61.4268 96.3685 59.8196 98.9125 55.586 98.9125C51.3524 98.9125 49.4551 96.3529 48.8828 93.8399C49.2356 96.7419 50.4508 100.017 55.1078 100.772H55.2959C56.2296 100.9 57.1801 100.828 58.0832 100.56C58.9862 100.291 59.8206 99.8339 60.5298 99.2179C61.2391 98.6018 61.8066 97.8417 62.1941 96.989C62.5815 96.1363 62.7797 95.211 62.7753 94.2756V86.8457C62.8031 85.9336 62.6011 85.029 62.1877 84.2139C61.7743 83.3988 61.1624 82.699 60.4076 82.1777Z" fill="#F28F8F"/>
<path d="M0.382812 79.392L104.961 0.705078L147.665 25.1576L43.0559 103.845L0.382812 79.392Z" fill="#B0C4CD"/>
<path d="M147.664 25.1572L157.244 35.9636L51.5297 115.25L43.0547 103.844L147.664 25.1572Z" fill="#B0C4CD"/>
<path opacity="0.2" d="M147.664 25.1572L157.244 35.9636L51.5297 115.25L43.0547 103.844L147.664 25.1572Z" fill="black"/>
<path d="M0.382812 79.3916L8.85785 90.8048L51.531 115.25L43.0559 103.844L0.382812 79.3916Z" fill="#B0C4CD"/>
<path opacity="0.4" d="M0.382812 79.3916L8.85785 90.8048L51.531 115.25L43.0559 103.844L0.382812 79.3916Z" fill="black"/>
<path d="M146.646 137.548C146.671 124.636 147.554 111.74 149.288 98.9436C151.131 86.1766 150.77 75.2535 150.214 72.1648C149.657 69.0762 149.484 64.5949 144.686 58.8999C142.428 56.2158 137.466 52.3103 133.326 47.4867C129.187 42.6631 125.259 37.2171 123.048 34.2607C120.837 31.3043 115.357 36.0579 115.623 45.4794C115.843 53.1739 121.111 59.9036 123.189 62.7822C125.69 66.2909 127.462 69.683 127.658 71.7992C127.83 73.5886 128.034 77.3852 125.51 80.5283C121.59 85.422 106.145 101.06 118.297 121.762V140.784L146.646 137.548Z" fill="#FFA8A7"/>
<path d="M124.05 40.0248C124.05 40.0248 128.754 46.3655 130.267 47.1824C131.781 47.9993 132.204 46.1399 132.204 46.1399C130.04 43.1213 126.002 37.6286 123.062 34.2754C123.903 36.0699 124.244 38.0552 124.05 40.0248Z" fill="#FFA8A7"/>
<path opacity="0.6" d="M124.05 40.0248C124.05 40.0248 128.754 46.3655 130.267 47.1824C131.781 47.9993 132.204 46.1399 132.204 46.1399C130.04 43.1213 126.002 37.6286 123.062 34.2754C123.903 36.0699 124.244 38.0552 124.05 40.0248Z" fill="white"/>
<path d="M132.201 46.1405C131.99 45.8016 131.757 45.4767 131.503 45.168C131.576 45.5751 131.532 45.9943 131.377 46.378C131.222 46.7618 130.961 47.0946 130.625 47.3386C131.856 47.6965 132.201 46.1405 132.201 46.1405Z" fill="#F28F8F"/>
</svg>
