<svg width="69" height="55" viewBox="0 0 69 55" fill="none" xmlns="http://www.w3.org/2000/svg">
<path d="M61.9414 33.6568C60.27 31.0758 57.9629 28.9605 55.2382 27.5106C44.2622 21.2399 26.5281 21.2399 15.5757 27.5106C12.8514 28.9581 10.5464 31.0741 8.88031 33.6568H7.36719V39.344C7.57103 43.2962 10.2993 47.2174 15.56 50.236C26.536 56.5067 44.2701 56.5067 55.2226 50.236C60.491 47.2174 63.235 43.2962 63.4389 39.344V33.6568H61.9414Z" fill="#B0C4CD"/>
<path opacity="0.25" d="M61.9414 33.6568C60.27 31.0758 57.9629 28.9605 55.2382 27.5106C44.2622 21.2399 26.5281 21.2399 15.5757 27.5106C12.8514 28.9581 10.5464 31.0741 8.88031 33.6568H7.36719V39.344C7.57103 43.2962 10.2993 47.2174 15.56 50.236C26.536 56.5067 44.2701 56.5067 55.2226 50.236C60.491 47.2174 63.235 43.2962 63.4389 39.344V33.6568H61.9414Z" fill="black"/>
<path opacity="0.1" d="M35.4109 22.8037C28.2294 22.8037 21.0558 24.3597 15.5757 27.5106C12.8514 28.9581 10.5464 31.0741 8.88031 33.6568H7.36719V39.344C7.57103 43.2962 10.2993 47.2173 15.56 50.236C21.048 53.348 28.2137 54.9429 35.3952 54.9429L35.4109 22.8037Z" fill="black"/>
<path opacity="0.1" d="M20.0915 25.418C18.5307 25.9908 17.0202 26.6908 15.5757 27.5108C12.8514 28.9583 10.5464 31.0743 8.88031 33.657H7.36719V39.3442C7.57103 43.2964 10.2993 47.2175 15.56 50.2362C17.0046 51.0561 18.515 51.7561 20.0758 52.329L20.0915 25.418Z" fill="black"/>
<path opacity="0.5" d="M50.7188 25.418C52.2796 25.9908 53.79 26.6908 55.2346 27.5108C57.9593 28.9606 60.2663 31.076 61.9378 33.657H63.4509V39.3442C63.2471 43.2964 60.5031 47.2175 55.2346 50.2362C53.79 51.0561 52.2796 51.7561 50.7188 52.329V25.418Z" fill="#B0C4CD"/>
<path d="M15.5757 22.2977C4.59975 28.5762 4.59975 38.7525 15.5757 45.0231C25.1641 50.5158 39.9503 51.2005 50.8557 47.0848L51.287 46.9137C52.6529 46.3779 53.9786 45.7461 55.254 45.0231C64.3876 39.7872 65.9086 31.8438 59.8012 25.7132C58.446 24.3783 56.9166 23.2296 55.254 22.2977C44.2858 16.0271 26.5047 16.0271 15.5757 22.2977Z" fill="#B0C4CD"/>
<path opacity="0.2" d="M15.5757 22.2977C4.59975 28.5762 4.59975 38.7525 15.5757 45.0231C25.1641 50.5158 39.9503 51.2005 50.8557 47.0848L51.287 46.9137C52.6529 46.3779 53.9786 45.7461 55.254 45.0231C64.3876 39.7872 65.9086 31.8438 59.8012 25.7132C58.446 24.3783 56.9166 23.2296 55.254 22.2977C44.2858 16.0271 26.5047 16.0271 15.5757 22.2977Z" fill="black"/>
<path opacity="0.5" d="M59.7877 25.7129C60.9797 27.0503 61.8609 28.6314 62.3689 30.3442C62.877 32.057 62.9994 33.8596 62.7277 35.6246C61.7555 41.1484 53.9626 45.8008 51.2734 46.9134C52.6394 46.3776 53.9651 45.7458 55.2405 45.0229C64.3741 39.7636 65.895 31.8435 59.7877 25.7129Z" fill="#F5F5F5"/>
<path opacity="0.5" d="M11.032 41.6077C9.83913 40.2711 8.95789 38.6899 8.45108 36.9767C7.94427 35.2635 7.82436 33.4604 8.0999 31.696C9.07206 26.1722 16.865 21.5275 19.5463 20.4072C18.181 20.9444 16.8554 21.5762 15.5793 22.2978C6.44565 27.5337 4.93253 35.4771 11.032 41.6077Z" fill="#F5F5F5"/>
<path d="M53.8514 44.1982C64.0434 38.371 64.0434 28.9105 53.8514 23.0755C43.6594 17.2405 27.1954 17.2483 17.0034 23.0755C6.81137 28.9027 6.81137 38.371 17.0034 44.1982C27.1954 50.0254 43.6751 50.0332 53.8514 44.1982Z" fill="#B0C4CD"/>
<path opacity="0.4" d="M53.8514 44.1982C64.0434 38.371 64.0434 28.9105 53.8514 23.0755C43.6594 17.2405 27.1954 17.2483 17.0034 23.0755C6.81137 28.9027 6.81137 38.371 17.0034 44.1982C27.1954 50.0254 43.6751 50.0332 53.8514 44.1982Z" fill="white"/>
<path opacity="0.2" d="M60.2994 38.0986C62.3927 34.2553 61.7106 30.023 58.2532 26.4286C57.572 25.7275 56.8324 25.0847 56.0423 24.507C55.3685 24.0053 54.6642 23.5454 53.9333 23.1299C53.5178 22.8809 53.0944 22.6553 52.6476 22.4375C53.7373 24.2036 53.3375 26.1019 47.1988 26.4597C35.18 27.1522 50.4053 38.5499 50.4053 38.5499C50.4053 38.5499 58.1512 34.8388 60.2994 38.0986Z" fill="white"/>
<path opacity="0.5" d="M59.062 34.9477C60.8652 34.7455 61.759 32.9094 61.0612 30.8399C60.3635 28.7704 58.3251 27.2533 56.5219 27.4556C54.7187 27.6579 53.8249 29.494 54.5305 31.5634C55.2361 33.6329 57.2588 35.15 59.062 34.9477Z" fill="white"/>
<path d="M40.0637 44.432C39.4679 40.0052 19.9698 27.7439 19.9698 27.7439C19.9698 27.7439 15.6421 26.0246 17.0768 23.0215C16.3571 23.4286 15.6609 23.8754 14.9914 24.3596C14.5367 24.6786 14.1212 25.0132 13.7213 25.3555C7.91973 30.3425 7.91189 36.901 13.7213 41.8958C14.1133 42.2303 14.5053 42.5648 14.9836 42.8916C15.6045 43.343 16.2511 43.7586 16.92 44.1364C17.5881 44.5296 18.2763 44.888 18.982 45.21C19.5543 45.4823 20.1423 45.7313 20.7381 45.988C21.334 46.2448 21.9455 46.4393 22.5727 46.6416C24.4713 47.2571 26.4166 47.7202 28.39 48.0264L29.6993 48.2209C31.6285 48.4653 33.5717 48.5848 35.5165 48.5788C37.9013 48.5794 40.2821 48.3868 42.6353 48.0031C42.6353 48.0031 39.5071 47.3573 40.0637 44.432Z" fill="#B0C4CD"/>
<path opacity="0.3" d="M40.0637 44.432C39.4679 40.0052 19.9698 27.7439 19.9698 27.7439C19.9698 27.7439 15.6421 26.0246 17.0768 23.0215C16.3571 23.4286 15.6609 23.8754 14.9914 24.3596C14.5367 24.6786 14.1212 25.0132 13.7213 25.3555C7.91973 30.3425 7.91189 36.901 13.7213 41.8958C14.1133 42.2303 14.5053 42.5648 14.9836 42.8916C15.6045 43.343 16.2511 43.7586 16.92 44.1364C17.5881 44.5296 18.2763 44.888 18.982 45.21C19.5543 45.4823 20.1423 45.7313 20.7381 45.988C21.334 46.2448 21.9455 46.4393 22.5727 46.6416C24.4713 47.2571 26.4166 47.7202 28.39 48.0264L29.6993 48.2209C31.6285 48.4653 33.5717 48.5848 35.5165 48.5788C37.9013 48.5794 40.2821 48.3868 42.6353 48.0031C42.6353 48.0031 39.5071 47.3573 40.0637 44.432Z" fill="white"/>
<path d="M21.6729 25.7594C14.3974 29.9295 14.0994 36.5814 20.787 40.9538C21.0692 41.1405 21.3671 41.3194 21.6729 41.4984C29.262 45.8474 41.5551 45.8474 49.1129 41.4984C56.6706 37.1493 56.702 30.1084 49.1129 25.7594L48.1564 25.2537C40.5594 21.4337 28.9484 21.6049 21.6729 25.7594Z" fill="#B0C4CD"/>
<path opacity="0.2" d="M21.6729 25.7594C14.3974 29.9295 14.0994 36.5814 20.787 40.9538C21.0692 41.1405 21.3671 41.3194 21.6729 41.4984C29.262 45.8474 41.5551 45.8474 49.1129 41.4984C56.6706 37.1493 56.702 30.1084 49.1129 25.7594L48.1564 25.2537C40.5594 21.4337 28.9484 21.6049 21.6729 25.7594Z" fill="black"/>
<path d="M35.4167 44.2764C45.6699 44.2764 53.9818 39.5148 53.9818 33.6411C53.9818 27.7674 45.6699 23.0059 35.4167 23.0059C25.1634 23.0059 16.8516 27.7674 16.8516 33.6411C16.8516 39.5148 25.1634 44.2764 35.4167 44.2764Z" fill="#B0C4CD"/>
<path opacity="0.5" d="M35.4167 44.2764C45.6699 44.2764 53.9818 39.5148 53.9818 33.6411C53.9818 27.7674 45.6699 23.0059 35.4167 23.0059C25.1634 23.0059 16.8516 27.7674 16.8516 33.6411C16.8516 39.5148 25.1634 44.2764 35.4167 44.2764Z" fill="black"/>
<path d="M22.2919 29.0817C29.5361 24.9272 41.2961 24.9272 48.5402 29.0817C51.5116 30.7855 53.2442 32.9173 53.8009 35.119C53.2599 37.3285 51.5116 39.4602 48.5402 41.1563C41.2961 45.3108 29.5361 45.3108 22.2919 41.1563C19.3284 39.4602 17.5879 37.3285 17.0312 35.119C17.5722 32.9173 19.3284 30.7855 22.2919 29.0817Z" fill="#B0C4CD"/>
<path opacity="0.35" d="M22.2919 29.0817C29.5361 24.9272 41.2961 24.9272 48.5402 29.0817C51.5116 30.7855 53.2442 32.9173 53.8009 35.119C53.2599 37.3285 51.5116 39.4602 48.5402 41.1563C41.2961 45.3108 29.5361 45.3108 22.2919 41.1563C19.3284 39.4602 17.5879 37.3285 17.0312 35.119C17.5722 32.9173 19.3284 30.7855 22.2919 29.0817Z" fill="black"/>
<path d="M47.1068 36.8468C47.1068 36.4812 47.1068 35.0185 47.1068 34.6451C47.1068 33.7426 46.4796 32.8712 45.1312 32.0855H45.0841C42.591 30.6539 40.0117 30.8406 37.7145 31.4164C36.7424 31.6653 35.8094 31.9765 34.9627 32.2644C33.998 32.6224 33.0139 32.9263 32.0148 33.1747C31.555 33.2802 31.0831 33.3247 30.6115 33.3069C30.2081 33.2843 29.8134 33.1811 29.4512 33.0035L29.5453 32.9335L29.8353 32.7623C30.0868 32.6139 30.3488 32.4839 30.6193 32.3733C31.2668 32.0896 31.9643 31.9354 32.6719 31.9194C33.3795 31.9033 34.0833 32.0259 34.7432 32.28L37.0952 29.8993V27.7131C34.9964 27.0023 32.733 26.9211 30.588 27.4797C29.8799 27.6597 29.1877 27.8964 28.5182 28.1877L26.1662 26.8262L23.3281 28.4522V30.6384L24.3003 31.1985C24.0415 31.5755 23.8972 32.0184 23.8848 32.4745V34.6529C23.8848 35.5553 24.5433 36.4267 25.9075 37.2125C27.0994 37.9048 28.4471 38.29 29.8275 38.3328H30.6115C32.0501 38.2266 33.467 37.9229 34.8216 37.4303L35.6056 37.1502L33.2065 39.5309V41.7171C34.6841 42.2716 36.2597 42.5224 37.8379 42.4542C39.4161 42.386 40.9638 42.0002 42.3872 41.3203L44.7392 42.6663L47.5773 41.0402V38.854L46.6051 38.2939C46.9154 37.8727 47.0902 37.3683 47.1068 36.8468ZM41.1171 36.6523C40.9057 36.7767 40.6856 36.8859 40.4585 36.9791C38.9819 37.6119 37.3126 37.6371 35.8173 37.0491C38.036 36.2711 39.8941 35.5942 41.4777 36.4267C41.3628 36.5099 41.2423 36.5853 41.1171 36.6523Z" fill="#B0C4CD"/>
<path d="M37.7145 31.3851C36.7424 31.6341 35.8094 31.9453 34.9627 32.2332C33.998 32.5911 33.0139 32.895 32.0148 33.1434C31.555 33.2489 31.0831 33.2934 30.6115 33.2757C30.1358 33.25 29.6733 33.1113 29.263 32.8711C28.3457 32.3499 28.2125 31.5874 29.5453 30.716L29.8353 30.5371C30.0886 30.3943 30.3504 30.2669 30.6193 30.1559C31.2668 29.8722 31.9643 29.7179 32.6719 29.7019C33.3795 29.6859 34.0833 29.8084 34.7432 30.0625L37.0952 27.6819C34.9964 26.9711 32.733 26.8899 30.588 27.4485C29.8799 27.6284 29.1877 27.8652 28.5182 28.1564L26.1662 26.7949L23.3281 28.421L25.6801 29.7669C23.3281 31.5641 23.2497 33.4313 25.931 34.9717C27.1229 35.6641 28.4706 36.0492 29.851 36.092H30.635C32.0746 35.9871 33.492 35.6806 34.8451 35.1818C37.5734 34.2793 39.7843 33.2134 41.6188 34.2637C42.8497 34.9717 42.5048 35.8586 41.1563 36.5977C40.9449 36.7221 40.7248 36.8313 40.4977 36.9245C39.7555 37.2405 38.9573 37.4067 38.1497 37.4134C37.342 37.42 36.5412 37.2671 35.7937 36.9634L33.2928 39.4452C34.7703 39.9998 36.346 40.2505 37.9241 40.1823C39.5023 40.1141 41.0501 39.7283 42.4734 39.0484L44.8254 40.3944L47.6635 38.7684L45.3115 37.4224C47.6635 35.6097 47.9536 33.6336 45.1939 32.0309H45.1468C42.591 30.6227 40.0117 30.8094 37.7145 31.3851Z" fill="#B0C4CD"/>
<g opacity="0.3">
<path d="M37.7145 31.3851C36.7424 31.6341 35.8094 31.9453 34.9627 32.2332C33.998 32.5911 33.0139 32.895 32.0148 33.1434C31.555 33.2489 31.0831 33.2934 30.6115 33.2757C30.1358 33.25 29.6733 33.1113 29.263 32.8711C28.3457 32.3499 28.2125 31.5874 29.5453 30.716L29.8353 30.5371C30.0886 30.3943 30.3504 30.2669 30.6193 30.1559C31.2668 29.8722 31.9643 29.7179 32.6719 29.7019C33.3795 29.6859 34.0833 29.8084 34.7432 30.0625L37.0952 27.6819C34.9964 26.9711 32.733 26.8899 30.588 27.4485C29.8799 27.6284 29.1877 27.8652 28.5182 28.1564L26.1662 26.7949L23.3281 28.421L25.6801 29.7669C23.3281 31.5641 23.2497 33.4313 25.931 34.9717C27.1229 35.6641 28.4706 36.0492 29.851 36.092H30.635C32.0746 35.9871 33.492 35.6806 34.8451 35.1818C37.5734 34.2793 39.7843 33.2134 41.6188 34.2637C42.8497 34.9717 42.5048 35.8586 41.1563 36.5977C40.9449 36.7221 40.7248 36.8313 40.4977 36.9245C39.7555 37.2405 38.9573 37.4067 38.1497 37.4134C37.342 37.42 36.5412 37.2671 35.7937 36.9634L33.2928 39.4452C34.7703 39.9998 36.346 40.2505 37.9241 40.1823C39.5023 40.1141 41.0501 39.7283 42.4734 39.0484L44.8254 40.3944L47.6635 38.7684L45.3115 37.4224C47.6635 35.6097 47.9536 33.6336 45.1939 32.0309H45.1468C42.591 30.6227 40.0117 30.8094 37.7145 31.3851Z" fill="white"/>
</g>
<path opacity="0.45" d="M23.3047 28.421L26.1741 27.1295L28.5261 28.1564L26.1428 26.7949L23.3047 28.421Z" fill="#F5F5F5"/>
<path opacity="0.45" d="M30.2656 27.534C32.2903 27.1337 34.3811 27.2056 36.373 27.7441L34.7187 30.0781L37.0707 27.6974C34.8725 26.954 32.4975 26.897 30.2656 27.534Z" fill="#F5F5F5"/>
<path opacity="0.45" d="M45.0883 32.0542H45.1354C47.8951 33.6569 47.6207 35.633 45.253 37.4457C47.3541 35.1818 46.9699 33.6024 44.6963 32.3032C42.5454 31.2134 40.0859 30.8789 37.7188 31.354C40.0159 30.8094 42.5952 30.6227 45.0883 32.0542Z" fill="#F5F5F5"/>
<path opacity="0.45" d="M45.2517 37.4766L47.0549 38.8536L44.7656 40.4485L47.6037 38.8225L45.2517 37.4766Z" fill="#F5F5F5"/>
<path opacity="0.45" d="M40.4629 36.9785C39.0622 37.6821 37.4425 37.8241 35.9392 37.3753L33.2344 39.4992L35.7353 37.0174C36.4861 37.3243 37.2911 37.479 38.1031 37.4723C38.915 37.4656 39.7173 37.2977 40.4629 36.9785Z" fill="#F5F5F5"/>
<path opacity="0.45" d="M31.9936 33.1432C31.4427 33.3667 30.8454 33.4544 30.2528 33.3988C29.6602 33.3433 29.0901 33.1461 28.591 32.8242C27.807 32.124 28.2931 31.3693 29.524 30.7158C28.1912 31.5872 28.3245 32.3496 29.2418 32.8709C29.6521 33.1111 30.1146 33.2498 30.5902 33.2754C31.0619 33.2932 31.5338 33.2487 31.9936 33.1432Z" fill="#F5F5F5"/>
<path opacity="0.45" d="M25.633 29.79C25.437 29.9612 23.7279 31.5483 24.4805 33.1277C25.2332 34.707 27.789 35.8973 29.8117 36.1152C28.4313 36.0724 27.0837 35.6872 25.8917 34.9949C23.2026 33.4544 23.2497 31.5872 25.633 29.79Z" fill="#F5F5F5"/>
<path d="M67.2774 25.6509C65.6132 23.0667 63.3077 20.9503 60.582 19.5047C49.606 13.2263 31.8719 13.2263 20.9194 19.5047C18.1938 20.9503 15.8882 23.0667 14.2241 25.6509H12.7031V31.3381C12.907 35.2904 15.6274 39.2115 20.8959 42.2301C31.8719 48.5086 49.606 48.5086 60.5585 42.2301C65.827 39.2193 68.571 35.2982 68.767 31.3381V25.6509H67.2774Z" fill="#B0C4CD"/>
<path opacity="0.25" d="M67.2774 25.6509C65.6132 23.0667 63.3077 20.9503 60.582 19.5047C49.606 13.2263 31.8719 13.2263 20.9194 19.5047C18.1938 20.9503 15.8882 23.0667 14.2241 25.6509H12.7031V31.3381C12.907 35.2904 15.6274 39.2115 20.8959 42.2301C31.8719 48.5086 49.606 48.5086 60.5585 42.2301C65.827 39.2193 68.571 35.2982 68.767 31.3381V25.6509H67.2774Z" fill="black"/>
<path opacity="0.1" d="M40.7234 14.7979C33.542 14.7979 26.3684 16.3539 20.8882 19.4659C18.1625 20.9114 15.857 23.0278 14.1928 25.612H12.6719V31.2992C12.8757 35.2515 15.5962 39.1726 20.8647 42.1912C26.3527 45.3032 33.5184 46.8592 40.6999 46.8592L40.7234 14.7979Z" fill="black"/>
<path opacity="0.1" d="M25.404 17.4043C23.8444 17.983 22.3342 18.6855 20.8882 19.5049C18.1625 20.9504 15.857 23.0668 14.1928 25.6511H12.6719V31.3383C12.8757 35.2905 15.5962 39.2116 20.8647 42.2303C22.309 43.0528 23.8195 43.7554 25.3805 44.3309L25.404 17.4043Z" fill="black"/>
<path opacity="0.5" d="M56.0312 17.4043C57.5909 17.983 59.1011 18.6855 60.5471 19.5049C63.2728 20.9504 65.5783 23.0668 67.2424 25.6511H68.7556V31.3383C68.5596 35.2905 65.8077 39.2116 60.5471 42.2303C59.1027 43.0528 57.5923 43.7554 56.0312 44.3309V17.4043Z" fill="#B0C4CD"/>
<path d="M20.8882 14.2919C9.91225 20.5625 9.91225 30.7388 20.8882 37.0172C30.4687 42.4632 45.2628 43.1945 56.1682 39.0711L56.5995 38.9078C57.9648 38.3706 59.2904 37.7388 60.5665 37.0172C69.7001 31.7813 71.2132 23.8379 65.1137 17.7073C63.7581 16.375 62.2288 15.2289 60.5665 14.2996C49.5983 8.01339 31.8407 8.01341 20.8882 14.2919Z" fill="#B0C4CD"/>
<path opacity="0.2" d="M20.8882 14.2919C9.91225 20.5625 9.91225 30.7388 20.8882 37.0172C30.4687 42.4632 45.2628 43.1945 56.1682 39.0711L56.5995 38.9078C57.9648 38.3706 59.2904 37.7388 60.5665 37.0172C69.7001 31.7813 71.2132 23.8379 65.1137 17.7073C63.7581 16.375 62.2288 15.2289 60.5665 14.2996C49.5983 8.01339 31.8407 8.01341 20.8882 14.2919Z" fill="black"/>
<path opacity="0.5" d="M65.1001 17.707C66.2985 19.041 67.1855 20.621 67.6978 22.3343C68.2101 24.0476 68.335 25.852 68.0636 27.6188C67.0914 33.1426 59.3063 37.7872 56.6172 38.9075C57.9825 38.3703 59.3081 37.7386 60.5842 37.017C69.6865 31.7811 71.1996 23.8377 65.1001 17.707Z" fill="#F5F5F5"/>
<path opacity="0.5" d="M16.3198 33.6019C15.1278 32.2646 14.2472 30.6834 13.7404 28.9703C13.2336 27.2573 13.1132 25.4546 13.3876 23.6902C14.352 18.1664 22.1449 13.5139 24.834 12.4014C23.4681 12.9372 22.1424 13.569 20.867 14.2919C11.7569 19.5356 10.2438 27.4712 16.3198 33.6019Z" fill="#F5F5F5"/>
<path d="M59.1639 36.1923C69.3559 30.3573 69.3559 20.9046 59.1639 15.0696C48.9719 9.23461 32.5079 9.23461 22.3159 15.0696C12.1239 20.9046 12.1239 30.3573 22.3159 36.1923C32.5079 42.0273 48.9797 42.0273 59.1639 36.1923Z" fill="#B0C4CD"/>
<path opacity="0.4" d="M59.1639 36.1923C69.3559 30.3573 69.3559 20.9046 59.1639 15.0696C48.9719 9.23461 32.5079 9.23461 22.3159 15.0696C12.1239 20.9046 12.1239 30.3573 22.3159 36.1923C32.5079 42.0273 48.9797 42.0273 59.1639 36.1923Z" fill="white"/>
<path opacity="0.2" d="M65.6149 30.0928C67.7082 26.2495 67.0261 22.0094 63.5687 18.4228C62.8873 17.7242 62.1477 17.084 61.3578 16.5089C60.6823 16.0073 59.9782 15.5449 59.2488 15.124C58.8333 14.8829 58.4021 14.6495 57.9631 14.4316C59.045 16.2055 58.653 18.096 52.4751 18.4539C40.4642 19.1541 55.6895 30.544 55.6895 30.544C55.6895 30.544 63.4667 26.8252 65.6149 30.0928Z" fill="white"/>
<path opacity="0.5" d="M64.3781 26.9426C66.1813 26.7403 67.0751 24.8964 66.3695 22.827C65.6639 20.7575 63.6411 19.2482 61.8379 19.4427C60.0347 19.6372 59.141 21.4888 59.8387 23.5583C60.5365 25.6278 62.5749 27.1371 64.3781 26.9426Z" fill="white"/>
<path d="M45.3743 36.434C44.7784 32.0072 25.2725 19.7537 25.2725 19.7537C25.2725 19.7537 20.9527 18.0265 22.3874 15.0312C21.6649 15.4338 20.9684 15.8807 20.302 16.3694C19.8611 16.6788 19.4372 17.0112 19.0319 17.3653C13.2225 22.3522 13.2146 28.903 19.0319 33.8978C19.4239 34.2401 19.8473 34.5746 20.302 34.9014C20.9233 35.3483 21.567 35.7638 22.2306 36.1462C22.8996 36.5248 23.5895 36.8827 24.3004 37.2198C24.8648 37.4843 25.4607 37.7411 26.0565 37.9978C26.6524 38.2546 27.2639 38.4491 27.8832 38.6513C29.7858 39.2623 31.7334 39.7253 33.7084 40.0362C34.1396 40.1062 34.5786 40.1684 35.0098 40.2229C39.3121 40.7751 43.6727 40.7017 47.9537 40.0051C47.9537 40.0051 44.8098 39.3515 45.3743 36.434Z" fill="#B0C4CD"/>
<path opacity="0.3" d="M45.3743 36.434C44.7784 32.0072 25.2725 19.7537 25.2725 19.7537C25.2725 19.7537 20.9527 18.0265 22.3874 15.0312C21.6649 15.4338 20.9684 15.8807 20.302 16.3694C19.8611 16.6788 19.4372 17.0112 19.0319 17.3653C13.2225 22.3522 13.2146 28.903 19.0319 33.8978C19.4239 34.2401 19.8473 34.5746 20.302 34.9014C20.9233 35.3483 21.567 35.7638 22.2306 36.1462C22.8996 36.5248 23.5895 36.8827 24.3004 37.2198C24.8648 37.4843 25.4607 37.7411 26.0565 37.9978C26.6524 38.2546 27.2639 38.4491 27.8832 38.6513C29.7858 39.2623 31.7334 39.7253 33.7084 40.0362C34.1396 40.1062 34.5786 40.1684 35.0098 40.2229C39.3121 40.7751 43.6727 40.7017 47.9537 40.0051C47.9537 40.0051 44.8098 39.3515 45.3743 36.434Z" fill="white"/>
<path d="M26.9854 17.7614C19.7099 21.9315 19.4119 28.5834 26.0995 32.9558C26.3817 33.1347 26.6796 33.3214 26.9854 33.5004C34.5745 37.8416 46.8676 37.8416 54.4254 33.5004C61.9831 29.1591 62.0145 22.1104 54.4254 17.7614C54.1196 17.5825 53.7982 17.4113 53.4767 17.2479C45.8719 13.4202 34.2609 13.5913 26.9854 17.7614Z" fill="#B0C4CD"/>
<path opacity="0.2" d="M26.9854 17.7614C19.7099 21.9315 19.4119 28.5834 26.0995 32.9558C26.3817 33.1347 26.6796 33.3214 26.9854 33.5004C34.5745 37.8416 46.8676 37.8416 54.4254 33.5004C61.9831 29.1591 62.0145 22.1104 54.4254 17.7614C54.1196 17.5825 53.7982 17.4113 53.4767 17.2479C45.8719 13.4202 34.2609 13.5913 26.9854 17.7614Z" fill="black"/>
<path d="M40.7292 36.2627C50.9824 36.2627 59.2943 31.5011 59.2943 25.6274C59.2943 19.7537 50.9824 14.9922 40.7292 14.9922C30.4759 14.9922 22.1641 19.7537 22.1641 25.6274C22.1641 31.5011 30.4759 36.2627 40.7292 36.2627Z" fill="#B0C4CD"/>
<path opacity="0.5" d="M40.7292 36.2627C50.9824 36.2627 59.2943 31.5011 59.2943 25.6274C59.2943 19.7537 50.9824 14.9922 40.7292 14.9922C30.4759 14.9922 22.1641 19.7537 22.1641 25.6274C22.1641 31.5011 30.4759 36.2627 40.7292 36.2627Z" fill="black"/>
<path d="M27.5965 21.0915C34.8485 16.937 46.6007 16.937 53.8527 21.0915C56.8162 22.7875 58.5567 24.9192 59.1133 27.1288C58.5724 29.3383 56.8162 31.47 53.8527 33.166C46.6007 37.3205 34.8485 37.3205 27.5965 33.166C24.633 31.47 22.8925 29.3383 22.3438 27.1288C22.8847 24.9037 24.633 22.772 27.5965 21.0915Z" fill="#B0C4CD"/>
<path opacity="0.35" d="M27.5965 21.0915C34.8485 16.937 46.6007 16.937 53.8527 21.0915C56.8162 22.7875 58.5567 24.9192 59.1133 27.1288C58.5724 29.3383 56.8162 31.47 53.8527 33.166C46.6007 37.3205 34.8485 37.3205 27.5965 33.166C24.633 31.47 22.8925 29.3383 22.3438 27.1288C22.8847 24.9037 24.633 22.772 27.5965 21.0915Z" fill="black"/>
<path d="M52.4193 28.8712V26.6772C52.4193 25.7748 51.7921 24.8956 50.4358 24.1098H50.3888C47.8957 22.6861 45.3242 22.8728 43.027 23.4485C42.047 23.6897 41.1219 24.0087 40.2752 24.2966C39.3118 24.656 38.3274 24.9574 37.3273 25.199C36.8696 25.3007 36.4007 25.3452 35.9318 25.3313C35.526 25.3022 35.1296 25.1966 34.7637 25.0201L34.8577 24.9579L35.1478 24.7789C35.4012 24.6363 35.663 24.509 35.9318 24.3977C36.5787 24.1119 37.2764 23.9565 37.9843 23.9405C38.6922 23.9245 39.3963 24.0482 40.0557 24.3043L42.4077 21.9237V19.7375C40.3096 19.0242 38.0463 18.9403 35.9005 19.4963C35.1914 19.6765 34.499 19.916 33.8307 20.2121L31.4787 18.8428L28.6406 20.4766V22.6628L29.6128 23.2152C29.3467 23.5886 29.2018 24.0337 29.1973 24.4911V26.6772C29.1973 27.5797 29.848 28.4511 31.22 29.2369C32.4133 29.9259 33.7601 30.3108 35.14 30.3572C35.3987 30.3572 35.6574 30.3572 35.924 30.3572C37.3626 30.251 38.7795 29.9472 40.1341 29.4547L40.9181 29.1746L38.519 31.5553V33.7493C39.9978 34.298 41.5727 34.5457 43.15 34.4776C44.7273 34.4094 46.2746 34.0268 47.6997 33.3525L50.0517 34.6984L52.8897 33.0724V30.8162L51.9176 30.256C52.2162 29.8523 52.3905 29.3712 52.4193 28.8712ZM46.4296 28.6845C46.2165 28.8058 45.9966 28.9149 45.771 29.0112C44.2909 29.6403 42.6206 29.6654 41.1219 29.0813C43.3485 28.3033 45.2065 27.6186 46.7902 28.4589C46.6805 28.4978 46.555 28.5678 46.4296 28.6456V28.6845Z" fill="#B0C4CD"/>
<path d="M43.027 23.3792C42.047 23.6204 41.1219 23.9394 40.2752 24.2272C39.3118 24.5867 38.3274 24.8881 37.3273 25.1297C36.8696 25.2314 36.4007 25.2758 35.9318 25.262C35.4537 25.2363 34.9886 25.0976 34.5755 24.8574C33.6661 24.3361 33.5328 23.5659 34.8577 22.7024L35.1478 22.5234C35.4012 22.3808 35.663 22.2535 35.9318 22.1422C36.5787 21.8564 37.2764 21.701 37.9843 21.685C38.6922 21.669 39.3963 21.7926 40.0557 22.0488L42.4077 19.6682C40.3096 18.9548 38.0463 18.8709 35.9005 19.427C35.1914 19.6072 34.499 19.8466 33.8307 20.1427L31.4787 18.7734L28.6406 20.4072L30.9926 21.7532C28.6406 23.5582 28.5544 25.4253 31.2435 26.9658C32.4369 27.6548 33.7836 28.0397 35.1635 28.0861C35.4246 28.1017 35.6864 28.1017 35.9475 28.0861C37.3862 27.9799 38.803 27.6762 40.1576 27.1836C42.8859 26.2811 45.0889 25.2153 46.9313 26.2656C48.1544 26.9736 47.8173 27.8605 46.4688 28.5996C46.2557 28.7209 46.0358 28.83 45.8102 28.9264C45.0652 29.2353 44.2657 29.3944 43.4582 29.3944C42.6507 29.3944 41.8513 29.2353 41.1062 28.9264L38.6131 31.4082C40.0906 31.9617 41.6657 32.2126 43.2435 32.1457C44.8214 32.0789 46.3692 31.6957 47.7937 31.0192L50.1457 32.3651L52.9838 30.7391L50.6318 29.3932C52.9838 27.5726 53.2661 25.5965 50.5064 23.9938H50.4593C47.8957 22.6479 45.3242 22.8035 43.027 23.3792Z" fill="#B0C4CD"/>
<g opacity="0.3">
<path d="M43.027 23.3792C42.047 23.6204 41.1219 23.9394 40.2752 24.2272C39.3118 24.5867 38.3274 24.8881 37.3273 25.1297C36.8696 25.2314 36.4007 25.2758 35.9318 25.262C35.4537 25.2363 34.9886 25.0976 34.5755 24.8574C33.6661 24.3361 33.5328 23.5659 34.8577 22.7024L35.1478 22.5234C35.4012 22.3808 35.663 22.2535 35.9318 22.1422C36.5787 21.8564 37.2764 21.701 37.9843 21.685C38.6922 21.669 39.3963 21.7926 40.0557 22.0488L42.4077 19.6682C40.3096 18.9548 38.0463 18.8709 35.9005 19.427C35.1914 19.6072 34.499 19.8466 33.8307 20.1427L31.4787 18.7734L28.6406 20.4072L30.9926 21.7532C28.6406 23.5582 28.5544 25.4253 31.2435 26.9658C32.4369 27.6548 33.7836 28.0397 35.1635 28.0861C35.4246 28.1017 35.6864 28.1017 35.9475 28.0861C37.3862 27.9799 38.803 27.6762 40.1576 27.1836C42.8859 26.2811 45.0889 25.2153 46.9313 26.2656C48.1544 26.9736 47.8173 27.8605 46.4688 28.5996C46.2557 28.7209 46.0358 28.83 45.8102 28.9264C45.0652 29.2353 44.2657 29.3944 43.4582 29.3944C42.6507 29.3944 41.8513 29.2353 41.1062 28.9264L38.6131 31.4082C40.0906 31.9617 41.6657 32.2126 43.2435 32.1457C44.8214 32.0789 46.3692 31.6957 47.7937 31.0192L50.1457 32.3651L52.9838 30.7391L50.6318 29.3932C52.9838 27.5726 53.2661 25.5965 50.5064 23.9938H50.4593C47.8957 22.6479 45.3242 22.8035 43.027 23.3792Z" fill="white"/>
</g>
<path opacity="0.45" d="M28.6172 20.4151L31.4866 19.1236L33.8386 20.1506L31.4553 18.7891L28.6172 20.4151Z" fill="#F5F5F5"/>
<path opacity="0.45" d="M35.5781 19.5356C37.5997 19.134 39.6876 19.2033 41.6776 19.7379L40.0312 22.0719L42.3832 19.6913C40.1842 18.9504 37.8092 18.896 35.5781 19.5356Z" fill="#F5F5F5"/>
<path opacity="0.45" d="M50.393 24.0402H50.44C53.1997 25.6428 52.9332 27.619 50.5655 29.4395C52.6588 27.1755 52.2824 25.5961 50.0088 24.2891C47.8558 23.2055 45.3976 22.8739 43.0312 23.3477C45.3284 22.8031 47.8999 22.6475 50.393 24.0402Z" fill="#F5F5F5"/>
<path opacity="0.45" d="M50.5642 29.4707L52.3674 30.84L50.0781 32.4427L52.9162 30.8167L50.5642 29.4707Z" fill="#F5F5F5"/>
<path opacity="0.45" d="M45.7754 28.9727C44.3717 29.6765 42.7485 29.8158 41.2438 29.3617L38.5469 31.4856L41.04 29.0038C41.7915 29.3121 42.5976 29.4682 43.4108 29.4628C44.2241 29.4575 45.028 29.2908 45.7754 28.9727Z" fill="#F5F5F5"/>
<path opacity="0.45" d="M37.3044 25.1373C36.7524 25.3577 36.1551 25.4431 35.5629 25.3862C34.9707 25.3294 34.401 25.1319 33.9018 24.8106C33.1178 24.1104 33.6117 23.3635 34.8348 22.71C33.5098 23.5735 33.6431 24.3438 34.5525 24.865C34.9657 25.1053 35.4307 25.244 35.9089 25.2696C36.3778 25.2835 36.8466 25.239 37.3044 25.1373Z" fill="#F5F5F5"/>
<path opacity="0.45" d="M30.9484 21.7764C30.7446 21.9553 29.0354 23.5346 29.7959 25.1218C30.5564 26.7089 33.1044 27.8915 35.1271 28.1015C33.7473 28.0551 32.4005 27.6702 31.2071 26.9812C28.5102 25.4485 28.565 23.5813 30.9484 21.7764Z" fill="#F5F5F5"/>
<path d="M60.8789 16.2838C59.2096 13.701 56.902 11.5852 54.1757 10.1376C43.1997 3.8669 25.4735 3.8669 14.521 10.1376C11.7947 11.5852 9.48712 13.701 7.81781 16.2838H6.30469V21.971C6.50853 25.9232 9.23685 29.8443 14.5053 32.863C25.4813 39.1336 43.2076 39.1336 54.1601 32.863C59.4285 29.8443 62.1725 25.9232 62.3764 21.971V16.2838H60.8789Z" fill="#B0C4CD"/>
<path opacity="0.25" d="M60.8789 16.2838C59.2096 13.701 56.902 11.5852 54.1757 10.1376C43.1997 3.8669 25.4735 3.8669 14.521 10.1376C11.7947 11.5852 9.48712 13.701 7.81781 16.2838H6.30469V21.971C6.50853 25.9232 9.23685 29.8443 14.5053 32.863C25.4813 39.1336 43.2076 39.1336 54.1601 32.863C59.4285 29.8443 62.1725 25.9232 62.3764 21.971V16.2838H60.8789Z" fill="black"/>
<path opacity="0.1" d="M34.3484 5.43066C27.1748 5.43066 19.9933 6.98668 14.521 10.1376C11.7947 11.5852 9.48712 13.701 7.81781 16.2838H6.30469V21.971C6.50853 25.9232 9.23685 29.8443 14.5053 32.863C19.9933 35.975 27.1591 37.5698 34.3327 37.5698L34.3484 5.43066Z" fill="black"/>
<path opacity="0.1" d="M19.029 8.03711C17.4719 8.61586 15.9643 9.31835 14.521 10.1377C11.7947 11.5853 9.48712 13.7011 7.81781 16.2839H6.30469V21.9711C6.50853 25.9233 9.23685 29.8445 14.5053 32.8631C15.9472 33.683 17.455 34.383 19.0133 34.9559L19.029 8.03711Z" fill="black"/>
<path opacity="0.5" d="M49.6641 8.03711C51.2212 8.61586 52.7288 9.31835 54.1721 10.1377C56.8984 11.5853 59.206 13.7011 60.8753 16.2839H62.3884V21.9711C62.1846 25.9233 59.4405 29.8445 54.1721 32.8631C52.7302 33.683 51.2224 34.383 49.6641 34.9559V8.03711Z" fill="#B0C4CD"/>
<path d="M14.5211 4.92469C3.54506 11.2031 3.54506 21.3716 14.5211 27.6501C24.1015 33.1427 38.8956 33.8274 49.8011 29.7118L50.2401 29.5406C51.5901 29.0031 52.9001 28.3714 54.1601 27.6501C63.2937 22.4141 64.8147 14.4707 58.7151 8.3401C57.3616 7.00329 55.832 5.85441 54.1679 4.92469C43.2311 -1.34599 25.4735 -1.34599 14.5211 4.92469Z" fill="#B0C4CD"/>
<path opacity="0.2" d="M14.5211 4.92469C3.54506 11.2031 3.54506 21.3716 14.5211 27.6501C24.1015 33.1427 38.8956 33.8274 49.8011 29.7118L50.2401 29.5406C51.5901 29.0031 52.9001 28.3714 54.1601 27.6501C63.2937 22.4141 64.8147 14.4707 58.7151 8.3401C57.3616 7.00329 55.832 5.85441 54.1679 4.92469C43.2311 -1.34599 25.4735 -1.34599 14.5211 4.92469Z" fill="black"/>
<path opacity="0.5" d="M58.7252 8.33984C59.9162 9.67764 60.7963 11.259 61.303 12.9718C61.8097 14.6847 61.9307 16.4872 61.6573 18.2516C60.6852 23.7754 52.8922 28.42 50.2109 29.5403C51.561 29.0029 52.8709 28.3711 54.1309 27.6498C63.3037 22.4139 64.8247 14.4705 58.7252 8.33984Z" fill="#F5F5F5"/>
<path opacity="0.5" d="M9.96427 24.2034C8.77321 22.8656 7.89316 21.2843 7.38645 19.5714C6.87974 17.8586 6.75878 16.0561 7.03212 14.2917C8.00428 8.76792 15.7972 4.12325 18.4785 3.00293C17.1292 3.54193 15.8193 4.17363 14.5585 4.89346C5.38571 10.1994 3.86475 18.1039 9.96427 24.2034Z" fill="#F5F5F5"/>
<path d="M34.3571 31.2053C48.754 31.2053 60.4251 24.5175 60.4251 16.2677C60.4251 8.01785 48.754 1.33008 34.3571 1.33008C19.9601 1.33008 8.28906 8.01785 8.28906 16.2677C8.28906 24.5175 19.9601 31.2053 34.3571 31.2053Z" fill="#B0C4CD"/>
<path opacity="0.4" d="M34.3571 31.2053C48.754 31.2053 60.4251 24.5175 60.4251 16.2677C60.4251 8.01785 48.754 1.33008 34.3571 1.33008C19.9601 1.33008 8.28906 8.01785 8.28906 16.2677C8.28906 24.5175 19.9601 31.2053 34.3571 31.2053Z" fill="white"/>
<path opacity="0.2" d="M9.47318 20.7256C7.3799 16.8823 8.06199 12.6422 11.5194 9.0556C12.2006 8.35447 12.9402 7.71163 13.7303 7.13394C14.4058 6.63231 15.1099 6.16992 15.8393 5.7491C16.2548 5.50792 16.686 5.28229 17.125 5.06445C16.0431 6.83051 16.4351 8.72884 22.613 9.07894C34.6239 9.77914 19.3986 21.1768 19.3986 21.1768C19.3986 21.1768 11.6135 17.4658 9.47318 20.7256Z" fill="white"/>
<path opacity="0.5" d="M10.7094 17.5747C8.90619 17.3724 8.01242 15.5363 8.71802 13.4669C9.42362 11.3974 11.4463 9.88027 13.2495 10.0825C15.0527 10.2848 15.9465 12.1209 15.2487 14.1904C14.551 16.2599 12.5126 17.777 10.7094 17.5747Z" fill="white"/>
<path d="M29.7122 27.0746C30.308 22.64 49.8139 10.3865 49.8139 10.3865C49.8139 10.3865 54.1338 8.65936 52.6991 5.66406C53.4199 6.06938 54.1162 6.5162 54.7845 7.00222C55.2253 7.31161 55.6493 7.64402 56.0546 7.99806C61.864 12.985 61.8718 19.5436 56.0546 24.5383C55.6626 24.8729 55.2706 25.2074 54.7845 25.5342C54.1632 25.9811 53.5195 26.3966 52.8558 26.779C52.1868 27.168 51.4969 27.5259 50.7861 27.8526C50.2216 28.1249 49.6258 28.3739 49.0299 28.6306C48.4341 28.8874 47.8226 29.0819 47.2032 29.2841C45.3017 29.8986 43.3538 30.3617 41.3781 30.669L40.0766 30.8635C38.1448 31.1076 36.199 31.2271 34.2515 31.2213C31.8668 31.222 29.486 31.0294 27.1328 30.6456C27.1328 30.6456 30.2766 29.9843 29.7122 27.0746Z" fill="#B0C4CD"/>
<path opacity="0.3" d="M29.7122 27.0746C30.308 22.64 49.8139 10.3865 49.8139 10.3865C49.8139 10.3865 54.1338 8.65936 52.6991 5.66406C53.4199 6.06938 54.1162 6.5162 54.7845 7.00222C55.2253 7.31161 55.6493 7.64402 56.0546 7.99806C61.864 12.985 61.8718 19.5436 56.0546 24.5383C55.6626 24.8729 55.2706 25.2074 54.7845 25.5342C54.1632 25.9811 53.5195 26.3966 52.8558 26.779C52.1868 27.168 51.4969 27.5259 50.7861 27.8526C50.2216 28.1249 49.6258 28.3739 49.0299 28.6306C48.4341 28.8874 47.8226 29.0819 47.2032 29.2841C45.3017 29.8986 43.3538 30.3617 41.3781 30.669L40.0766 30.8635C38.1448 31.1076 36.199 31.2271 34.2515 31.2213C31.8668 31.222 29.486 31.0294 27.1328 30.6456C27.1328 30.6456 30.2766 29.9843 29.7122 27.0746Z" fill="white"/>
<path d="M48.0966 8.39414C55.3722 12.5642 55.6701 19.2161 48.9826 23.5885C48.7003 23.7752 48.4024 23.9542 48.0966 24.1331C40.5075 28.4821 28.2144 28.4821 20.6566 24.1331C13.0989 19.7841 13.0675 12.7432 20.6566 8.39414C20.9624 8.22298 21.2839 8.05183 21.6053 7.88845C29.2101 4.06069 40.8211 4.23184 48.0966 8.39414Z" fill="#B0C4CD"/>
<path opacity="0.2" d="M48.0966 8.39414C55.3722 12.5642 55.6701 19.2161 48.9826 23.5885C48.7003 23.7752 48.4024 23.9542 48.0966 24.1331C40.5075 28.4821 28.2144 28.4821 20.6566 24.1331C13.0989 19.7841 13.0675 12.7432 20.6566 8.39414C20.9624 8.22298 21.2839 8.05183 21.6053 7.88845C29.2101 4.06069 40.8211 4.23184 48.0966 8.39414Z" fill="black"/>
<path d="M47.4842 8.74481C54.7284 12.8993 54.7284 19.6368 47.4842 23.7835C40.2401 27.9303 28.4801 27.9381 21.2281 23.7835C13.9761 19.629 13.9761 12.8916 21.2281 8.74481C28.4801 4.59807 40.2322 4.59029 47.4842 8.74481Z" fill="#B0C4CD"/>
<path opacity="0.5" d="M47.4842 8.74481C54.7284 12.8993 54.7284 19.6368 47.4842 23.7835C40.2401 27.9303 28.4801 27.9381 21.2281 23.7835C13.9761 19.629 13.9761 12.8916 21.2281 8.74481C28.4801 4.59807 40.2322 4.59029 47.4842 8.74481Z" fill="black"/>
<path d="M47.4855 11.7087C40.2335 7.55414 28.4814 7.55414 21.2294 11.7087C18.2658 13.4125 16.5254 15.5364 15.9766 17.746C16.5097 19.9555 18.2658 22.0872 21.2294 23.7832C28.4814 27.9377 40.2335 27.9377 47.4855 23.7832C50.449 22.0872 52.1895 19.9555 52.7383 17.746C52.1974 15.5364 50.449 13.4125 47.4855 11.7087Z" fill="#B0C4CD"/>
<path opacity="0.35" d="M47.4855 11.7087C40.2335 7.55414 28.4814 7.55414 21.2294 11.7087C18.2658 13.4125 16.5254 15.5364 15.9766 17.746C16.5097 19.9555 18.2658 22.0872 21.2294 23.7832C28.4814 27.9377 40.2335 27.9377 47.4855 23.7832C50.449 22.0872 52.1895 19.9555 52.7383 17.746C52.1974 15.5364 50.449 13.4125 47.4855 11.7087Z" fill="black"/>
<path d="M46.0443 19.466C46.0443 19.1081 46.0443 17.6454 46.0443 17.272C46.0443 16.3695 45.4093 15.4981 44.0608 14.7124H44.0138C41.5206 13.2808 38.9413 13.4676 36.652 14.0433C35.6798 14.2923 34.7547 14.6035 33.908 14.8913C32.9442 15.2497 31.9599 15.5511 30.9601 15.7938C30.5004 15.8997 30.0284 15.9442 29.5568 15.926C29.1534 15.9034 28.7587 15.8002 28.3965 15.6226L28.4906 15.5526L28.7806 15.3737C29.0339 15.2308 29.2957 15.1035 29.5646 14.9925C30.8749 14.4191 32.3611 14.3855 33.6963 14.8991L36.0483 12.5184V10.3322C33.9495 9.62147 31.6861 9.54027 29.5411 10.0988C28.833 10.2788 28.1408 10.5156 27.4713 10.8068L25.1193 9.44531L22.2734 11.0713V13.2575L23.2534 13.8177C22.9894 14.1926 22.8421 14.6363 22.8301 15.0936C22.8301 15.4515 22.8301 16.9063 22.8301 17.272C22.8301 18.1745 23.4808 19.0458 24.8528 19.8316C26.0454 20.5224 27.3926 20.9075 28.7728 20.9519C29.0315 20.9519 29.2981 20.9519 29.5568 20.9519C30.9986 20.8496 32.4185 20.5457 33.7747 20.0495L34.5587 19.7694L32.1675 22.1578V24.344C33.6437 24.8983 35.2181 25.149 36.795 25.0808C38.3719 25.0126 39.9183 24.627 41.3403 23.9472L43.6923 25.2932L46.5382 23.6672V21.481L45.5582 20.9208C45.8714 20.4991 46.0416 19.9897 46.0443 19.466ZM40.0546 19.2792C39.8423 19.4021 39.6223 19.5112 39.396 19.606C37.9194 20.2388 36.25 20.264 34.7547 19.676C36.9813 18.898 38.8315 18.2134 40.4152 19.0536C40.3003 19.1369 40.1798 19.2122 40.0546 19.2792Z" fill="#B0C4CD"/>
<path d="M36.6989 14.012C35.7267 14.261 34.8016 14.5722 33.9549 14.8601C32.9911 15.2184 32.0068 15.5198 31.007 15.7625C30.5473 15.8684 30.0753 15.9129 29.6037 15.8948C29.1282 15.8683 28.6659 15.7296 28.2552 15.4902C27.3379 14.969 27.2046 14.1988 28.5374 13.3352L28.8275 13.1562C29.0807 13.0134 29.3426 12.8861 29.6115 12.775C30.9218 12.2017 32.4079 12.1681 33.7432 12.6817L36.0952 10.301C33.9964 9.59022 31.733 9.50902 29.588 10.0676C28.8799 10.2475 28.1877 10.4843 27.5182 10.7756L25.1662 9.41406L22.3203 11.0401L24.6723 12.386C22.3203 14.1832 22.2341 16.0504 24.9232 17.5909C26.1158 18.2817 27.463 18.6667 28.8432 18.7112C29.1019 18.7112 29.3685 18.7112 29.6272 18.7112C31.0689 18.6088 32.4889 18.305 33.8451 17.8087C36.5656 16.9062 38.7765 15.8404 40.611 16.8907C41.8419 17.5986 41.5048 18.4856 40.1485 19.2247C39.9362 19.3475 39.7163 19.4566 39.4899 19.5514C38.7477 19.8674 37.9495 20.0336 37.1419 20.0403C36.3342 20.047 35.5333 19.894 34.7859 19.5903L32.2928 22.0721C33.769 22.6265 35.3434 22.8772 36.9203 22.8089C38.4971 22.7407 40.0436 22.3551 41.4656 21.6754L43.8176 23.0213L46.6635 21.3953L44.3115 20.0493C46.6635 18.2366 46.9458 16.2605 44.1861 14.6578H44.139C41.5283 13.2496 38.9489 13.4363 36.6989 14.012Z" fill="#B0C4CD"/>
<g opacity="0.3">
<path d="M36.6989 14.012C35.7267 14.261 34.8016 14.5722 33.9549 14.8601C32.9911 15.2184 32.0068 15.5198 31.007 15.7625C30.5473 15.8684 30.0753 15.9129 29.6037 15.8948C29.1282 15.8683 28.6659 15.7296 28.2552 15.4902C27.3379 14.969 27.2046 14.1988 28.5374 13.3352L28.8275 13.1562C29.0807 13.0134 29.3426 12.8861 29.6115 12.775C30.9218 12.2017 32.4079 12.1681 33.7432 12.6817L36.0952 10.301C33.9964 9.59022 31.733 9.50902 29.588 10.0676C28.8799 10.2475 28.1877 10.4843 27.5182 10.7756L25.1662 9.41406L22.3203 11.0401L24.6723 12.386C22.3203 14.1832 22.2341 16.0504 24.9232 17.5909C26.1158 18.2817 27.463 18.6667 28.8432 18.7112C29.1019 18.7112 29.3685 18.7112 29.6272 18.7112C31.0689 18.6088 32.4889 18.305 33.8451 17.8087C36.5656 16.9062 38.7765 15.8404 40.611 16.8907C41.8419 17.5986 41.5048 18.4856 40.1485 19.2247C39.9362 19.3475 39.7163 19.4566 39.4899 19.5514C38.7477 19.8674 37.9495 20.0336 37.1419 20.0403C36.3342 20.047 35.5333 19.894 34.7859 19.5903L32.2928 22.0721C33.769 22.6265 35.3434 22.8772 36.9203 22.8089C38.4971 22.7407 40.0436 22.3551 41.4656 21.6754L43.8176 23.0213L46.6635 21.3953L44.3115 20.0493C46.6635 18.2366 46.9458 16.2605 44.1861 14.6578H44.139C41.5283 13.2496 38.9489 13.4363 36.6989 14.012Z" fill="white"/>
</g>
<path opacity="0.45" d="M22.25 11.0479L25.1116 9.75641L27.4636 10.7834L25.0881 9.42188L22.25 11.0479Z" fill="#F5F5F5"/>
<path opacity="0.45" d="M29.2031 10.1993C31.2278 9.799 33.3186 9.8709 35.3105 10.4094L33.6641 12.7434L36.0161 10.3627C33.8155 9.61762 31.4374 9.56059 29.2031 10.1993Z" fill="#F5F5F5"/>
<path opacity="0.45" d="M44.018 14.6812H44.065C46.8247 16.2839 46.5503 18.26 44.1905 20.0727C46.2838 17.8087 45.9075 16.2294 43.6339 14.9224C41.4807 13.8394 39.0226 13.5077 36.6562 13.981C38.9455 13.4364 41.5249 13.2497 44.018 14.6812Z" fill="#F5F5F5"/>
<path opacity="0.45" d="M44.1892 20.1035L45.9924 21.4806L43.6953 23.0755L46.5412 21.4494L44.1892 20.1035Z" fill="#F5F5F5"/>
<path opacity="0.45" d="M39.3925 19.6055C37.9919 20.309 36.3722 20.4511 34.8688 20.0023L32.1719 22.1262L34.665 19.6444C35.4157 19.9513 36.2208 20.1059 37.0327 20.0992C37.8446 20.0926 38.647 19.9247 39.3925 19.6055Z" fill="#F5F5F5"/>
<path opacity="0.45" d="M30.939 15.7701C30.3878 15.9923 29.7907 16.0793 29.1984 16.0238C28.6061 15.9683 28.036 15.7718 27.5364 15.4511C26.7132 14.7509 27.2464 13.9963 28.4694 13.3428C27.1366 14.2064 27.2699 14.9766 28.1872 15.4978C28.5978 15.7372 29.0601 15.8758 29.5356 15.9024C30.0073 15.9205 30.4792 15.876 30.939 15.7701Z" fill="#F5F5F5"/>
<path opacity="0.45" d="M24.5773 12.417C24.3735 12.5882 22.6644 14.1753 23.417 15.7546C24.1696 17.334 26.7255 18.5243 28.7482 18.7421C27.368 18.6977 26.0208 18.3126 24.8282 17.6218C22.1391 16.0814 22.1861 14.2142 24.5773 12.417Z" fill="#F5F5F5"/>
<path d="M9.57949 13.4592L10.2851 8.12988L10.9907 13.4592L20.2811 13.8637L10.9907 14.2683L10.2851 19.5898L9.57949 14.2683L0.28125 13.8637L9.57949 13.4592Z" fill="white"/>
</svg>
