<svg width="121" height="175" viewBox="0 0 121 175" fill="none" xmlns="http://www.w3.org/2000/svg">
<g opacity="0.3">
<path d="M72.64 142.267C72.6015 142.277 72.5609 142.277 72.5224 142.267L57.3442 133.569C57.3084 133.548 57.2787 133.519 57.258 133.483C57.2374 133.448 57.2265 133.408 57.2266 133.367C57.2271 133.327 57.2383 133.288 57.259 133.254C57.2796 133.219 57.309 133.191 57.3442 133.172L76.3248 122.28C76.3596 122.261 76.3987 122.251 76.4385 122.251C76.4782 122.251 76.5174 122.261 76.5522 122.28L91.7383 130.978C91.774 130.999 91.8037 131.028 91.8244 131.064C91.845 131.099 91.8559 131.139 91.8559 131.18C91.8551 131.221 91.8439 131.261 91.8234 131.297C91.8028 131.332 91.7735 131.362 91.7383 131.383L72.7576 142.275C72.7185 142.284 72.6776 142.281 72.64 142.267ZM57.9243 133.335L72.6322 141.769L91.1424 131.165L76.4346 122.755L57.9243 133.335Z" fill="#B0C4CD"/>
</g>
<path d="M72.6337 139.863V61.8839L61.25 55.3643V133.343L72.6337 139.863Z" fill="#B0C4CD"/>
<path opacity="0.2" d="M72.6337 139.863V61.8839L61.25 55.3643V133.343L72.6337 139.863Z" fill="black"/>
<path d="M72.6406 139.863L87.8267 131.165V53.1934L72.6406 61.8836V139.863Z" fill="#B0C4CD"/>
<path d="M87.8198 53.1934L76.4361 46.666L61.25 55.364L72.6337 61.8837L87.8198 53.1934Z" fill="#B0C4CD"/>
<path opacity="0.25" d="M87.8198 53.1934L76.4361 46.666L61.25 55.364L72.6337 61.8837L87.8198 53.1934Z" fill="white"/>
<path opacity="0.3" d="M87.8198 53.1934L72.4848 61.5802L67.5064 58.8183L61.2344 55.364L67.3809 59.0128L72.4142 61.9925C72.2966 63.6886 72.2652 132.969 72.2888 134.666C72.2969 136.403 72.4069 138.138 72.618 139.863C72.8318 138.138 72.9444 136.403 72.9552 134.666C72.9552 133.024 72.9552 63.7975 72.8297 62.1559L87.8198 53.1934Z" fill="white"/>
<g opacity="0.3">
<path d="M44.179 158.581C44.1403 158.59 44.1 158.59 44.0614 158.581L28.9145 149.844C28.8793 149.825 28.8499 149.797 28.8292 149.763C28.8086 149.728 28.7974 149.69 28.7969 149.65C28.7968 149.609 28.8077 149.568 28.8283 149.533C28.849 149.497 28.8787 149.468 28.9145 149.447L47.8951 138.555C47.9313 138.536 47.9717 138.526 48.0127 138.526C48.0537 138.526 48.0941 138.536 48.1303 138.555L63.3085 147.253C63.3433 147.275 63.3722 147.305 63.3927 147.34C63.4132 147.375 63.4247 147.415 63.4261 147.456C63.4262 147.497 63.4153 147.537 63.3947 147.573C63.374 147.608 63.3443 147.638 63.3085 147.658L44.3279 158.55C44.2825 158.575 44.2306 158.586 44.179 158.581ZM29.4633 149.65L44.179 158.075L62.6814 147.471L47.9735 139.046L29.4633 149.65Z" fill="#B0C4CD"/>
</g>
<path d="M44.1806 156.17L44.1727 109.389L32.7891 102.861V149.65L44.1806 156.17Z" fill="#B0C4CD"/>
<path opacity="0.1" d="M44.1806 156.17L44.1727 109.389L32.7891 102.861V149.65L44.1806 156.17Z" fill="white"/>
<path d="M44.1797 156.17L59.358 147.472V100.69L44.1719 109.388L44.1797 156.17Z" fill="#B0C4CD"/>
<path opacity="0.3" d="M44.1797 156.17L59.358 147.472V100.69L44.1719 109.388L44.1797 156.17Z" fill="white"/>
<path d="M59.3588 100.691L47.9751 94.1631L32.7891 102.861L44.1727 109.389L59.3588 100.691Z" fill="#B0C4CD"/>
<path opacity="0.55" d="M59.3588 100.691L47.9751 94.1631L32.7891 102.861L44.1727 109.389L59.3588 100.691Z" fill="white"/>
<path opacity="0.3" d="M44.3766 109.669L59.3589 100.69L44.0238 109.085C42.3696 108.151 40.7075 107.241 39.0454 106.323L32.7734 102.861L38.92 106.51C40.5978 107.516 42.2781 108.512 43.9611 109.497C43.9062 111.256 43.8513 119.744 43.8357 121.502C43.82 123.26 43.8357 143.605 43.8357 145.402C43.8357 147.199 43.8357 148.989 43.9376 150.786C44.0395 152.583 44.0552 154.38 44.1728 156.17C44.2825 154.38 44.3583 152.586 44.4001 150.786C44.4629 148.989 44.4942 147.199 44.5021 145.402C44.5099 143.605 44.5021 123.291 44.5021 121.502C44.5021 119.713 44.4315 111.365 44.3766 109.669Z" fill="white"/>
<g opacity="0.3">
<path d="M15.7105 174.881C15.6716 174.888 15.6318 174.888 15.5929 174.881L0.406831 166.183C0.37251 166.161 0.344357 166.131 0.325124 166.096C0.305892 166.06 0.296222 166.021 0.297059 165.98C0.295421 165.94 0.304739 165.9 0.324047 165.864C0.343355 165.829 0.371956 165.799 0.406831 165.778L19.3875 154.886C19.4223 154.863 19.4632 154.851 19.5051 154.851C19.5469 154.851 19.5878 154.863 19.6227 154.886L34.8009 163.584C34.8361 163.603 34.8655 163.631 34.8861 163.666C34.9068 163.7 34.9179 163.739 34.9185 163.779C34.9185 163.82 34.9077 163.86 34.887 163.895C34.8664 163.931 34.8367 163.96 34.8009 163.981L15.8281 174.873C15.7897 174.882 15.7499 174.885 15.7105 174.881ZM0.994831 165.949L15.7105 174.383L34.2207 163.771L19.5051 155.353L0.994831 165.949Z" fill="#B0C4CD"/>
</g>
<path d="M15.7118 172.476L15.704 156.037L4.32031 149.518V165.957L15.7118 172.476Z" fill="#B0C4CD"/>
<path opacity="0.45" d="M15.7118 172.476L15.704 156.037L4.32031 149.518V165.957L15.7118 172.476Z" fill="black"/>
<path d="M15.711 172.476L30.8892 163.786V147.339L15.7031 156.037L15.711 172.476Z" fill="#B0C4CD"/>
<path opacity="0.3" d="M15.711 172.476L30.8892 163.786V147.339L15.7031 156.037L15.711 172.476Z" fill="black"/>
<path d="M30.8901 147.339L19.5064 140.819L4.32031 149.517L15.704 156.037L30.8901 147.339Z" fill="#B0C4CD"/>
<path opacity="0.15" d="M30.8901 147.339L19.5064 140.819L4.32031 149.517L15.704 156.037L30.8901 147.339Z" fill="black"/>
<path opacity="0.3" d="M30.89 147.339L15.5863 155.733L10.6079 152.972L4.33594 149.517L10.4825 153.166L15.5158 156.146C15.3982 157.173 15.3668 168.244 15.3903 169.278C15.4016 170.352 15.5145 171.423 15.7275 172.476C15.938 171.423 16.0483 170.352 16.0567 169.278C16.0567 168.298 16.0567 157.282 15.947 156.301L30.89 147.339Z" fill="white"/>
<g opacity="0.3">
<path d="M101.101 125.96C101.062 125.971 101.022 125.971 100.983 125.96L85.8051 117.231C85.7693 117.21 85.7396 117.181 85.719 117.145C85.6983 117.11 85.6875 117.07 85.6875 117.029C85.6889 116.988 85.7004 116.948 85.7209 116.913C85.7414 116.878 85.7703 116.848 85.8051 116.826L104.778 105.934C104.814 105.915 104.854 105.905 104.896 105.905C104.937 105.905 104.977 105.915 105.013 105.934L120.199 114.632C120.234 114.653 120.263 114.683 120.282 114.719C120.301 114.754 120.311 114.794 120.309 114.835C120.309 114.875 120.299 114.914 120.28 114.95C120.261 114.985 120.233 115.015 120.199 115.037L101.219 125.929C101.183 125.95 101.142 125.961 101.101 125.96ZM86.3852 117.029L101.101 125.462L119.611 114.858L104.896 106.417L86.3852 117.029Z" fill="#B0C4CD"/>
</g>
<path d="M101.102 123.556V15.6163L89.7188 9.08887V117.029L101.102 123.556Z" fill="#B0C4CD"/>
<path opacity="0.3" d="M101.102 123.556V15.6163L89.7188 9.08887V117.029L101.102 123.556Z" fill="white"/>
<path d="M101.102 123.556L116.28 114.858L116.288 6.91797L101.102 15.616V123.556Z" fill="#B0C4CD"/>
<path opacity="0.55" d="M101.102 123.556L116.28 114.858L116.288 6.91797L101.102 15.616V123.556Z" fill="white"/>
<path d="M116.289 6.91804L104.897 0.390625L89.7188 9.08866L101.102 15.6161L116.289 6.91804Z" fill="#B0C4CD"/>
<path opacity="0.75" d="M116.289 6.91804L104.897 0.390625L89.7188 9.08866L101.102 15.6161L116.289 6.91804Z" fill="white"/>
<path opacity="0.3" d="M101.306 15.8961L116.289 6.91797L100.946 15.3048C99.2889 14.3816 97.6294 13.4635 95.9673 12.5507L89.6953 9.08858L95.834 12.7374C97.5118 13.741 99.1895 14.7369 100.883 15.7249C100.828 17.7166 100.773 42.7138 100.758 44.7132C100.742 46.7127 100.758 109.349 100.758 111.38C100.758 113.411 100.797 115.433 100.859 117.464C100.922 119.495 100.977 121.525 101.095 123.556C101.212 121.525 101.283 119.495 101.33 117.464C101.377 115.433 101.416 113.411 101.432 111.38C101.447 109.349 101.432 46.736 101.432 44.7132C101.432 42.6904 101.353 17.8333 101.306 15.8961Z" fill="white"/>
</svg>
